<svg width="52" height="54" viewBox="0 0 52 54" fill="none" xmlns="http://www.w3.org/2000/svg">
<path d="M13.1133 16.8145H38.8449C39.5552 16.8146 40.2586 16.6739 40.9148 16.4004C41.5711 16.1268 42.1674 15.7258 42.6697 15.2202C43.1719 14.7146 43.5703 14.1143 43.8421 13.4536C44.1138 12.793 44.2536 12.0849 44.2535 11.3699V6.3313C44.2535 4.8873 43.6836 3.50245 42.6693 2.4814C41.655 1.46034 40.2793 0.886719 38.8449 0.886719L13.1133 0.886719C11.68 0.888369 10.3059 1.46272 9.29288 2.4836C8.27992 3.50448 7.71094 4.88838 7.71094 6.3313V11.3699C7.71061 12.8129 8.27948 14.197 9.29252 15.218C10.3056 16.2389 11.6799 16.8132 13.1133 16.8145ZM12.8399 6.14823H39.122V11.5542H12.8449L12.8399 6.14823Z" fill="#2A3A15"/>
<path d="M43.2228 22.698C42.7879 21.6888 42.0695 20.8295 41.1558 20.2259C40.2421 19.6223 39.1731 19.3007 38.0802 19.3008H13.9198C12.828 19.3021 11.7604 19.6243 10.8479 20.2278C9.9355 20.8313 9.21795 21.6898 8.78337 22.698L0 43.0704H52L43.2228 22.698ZM20.4603 37.4016C20.3361 37.5265 20.1888 37.6255 20.0266 37.693C19.8644 37.7606 19.6906 37.7953 19.5152 37.7952H16.869C16.5147 37.7952 16.1748 37.6535 15.9243 37.4012C15.6737 37.149 15.5329 36.8069 15.5329 36.4502C15.5329 36.0935 15.6737 35.7514 15.9243 35.4992C16.1748 35.2469 16.5147 35.1052 16.869 35.1052H19.509C19.7733 35.1051 20.0318 35.1839 20.2517 35.3317C20.4715 35.4794 20.6429 35.6895 20.7441 35.9354C20.8453 36.1813 20.8717 36.4518 20.8201 36.7128C20.7685 36.9738 20.6411 37.2135 20.4541 37.4016H20.4603ZM20.4603 32.1364C20.3361 32.2613 20.1888 32.3603 20.0266 32.4278C19.8644 32.4953 19.6906 32.53 19.5152 32.5299H16.869C16.5147 32.5299 16.1748 32.3882 15.9243 32.136C15.6737 31.8838 15.5329 31.5417 15.5329 31.185C15.5329 30.8283 15.6737 30.4862 15.9243 30.2339C16.1748 29.9817 16.5147 29.84 16.869 29.84H19.509C19.7733 29.8398 20.0318 29.9186 20.2517 30.0664C20.4715 30.2142 20.6429 30.4243 20.7441 30.6702C20.8453 30.916 20.8717 31.1866 20.8201 31.4476C20.7685 31.7086 20.6411 31.9483 20.4541 32.1364H20.4603ZM20.4603 26.8711C20.3361 26.996 20.1888 27.095 20.0266 27.1625C19.8644 27.2301 19.6906 27.2648 19.5152 27.2647H16.869C16.5147 27.2647 16.1748 27.123 15.9243 26.8707C15.6737 26.6185 15.5329 26.2764 15.5329 25.9197C15.5329 25.563 15.6737 25.2209 15.9243 24.9687C16.1748 24.7164 16.5147 24.5747 16.869 24.5747H19.509C19.7733 24.5746 20.0318 24.6534 20.2517 24.8012C20.4715 24.9489 20.6429 25.159 20.7441 25.4049C20.8453 25.6508 20.8717 25.9213 20.8201 26.1823C20.7685 26.4433 20.6411 26.683 20.4541 26.8711H20.4603ZM28.2713 37.4016C28.1472 37.5265 27.9998 37.6255 27.8376 37.693C27.6755 37.7606 27.5017 37.7953 27.3262 37.7952H24.68C24.3257 37.7952 23.9858 37.6535 23.7353 37.4012C23.4847 37.149 23.344 36.8069 23.344 36.4502C23.344 36.0935 23.4847 35.7514 23.7353 35.4992C23.9858 35.2469 24.3257 35.1052 24.68 35.1052H27.32C27.5843 35.1051 27.8428 35.1839 28.0627 35.3317C28.2825 35.4794 28.4539 35.6895 28.5551 35.9354C28.6563 36.1813 28.6827 36.4518 28.6311 36.7128C28.5795 36.9738 28.4521 37.2135 28.2651 37.4016H28.2713ZM28.2713 32.1364C28.1472 32.2613 27.9998 32.3603 27.8376 32.4278C27.6755 32.4953 27.5017 32.53 27.3262 32.5299H24.68C24.3257 32.5299 23.9858 32.3882 23.7353 32.136C23.4847 31.8838 23.344 31.5417 23.344 31.185C23.344 30.8283 23.4847 30.4862 23.7353 30.2339C23.9858 29.9817 24.3257 29.84 24.68 29.84H27.32C27.5843 29.8398 27.8428 29.9186 28.0627 30.0664C28.2825 30.2142 28.4539 30.4243 28.5551 30.6702C28.6563 30.916 28.6827 31.1866 28.6311 31.4476C28.5795 31.7086 28.4521 31.9483 28.2651 32.1364H28.2713ZM28.2713 26.8711C28.1472 26.996 27.9998 27.095 27.8376 27.1625C27.6755 27.2301 27.5017 27.2648 27.3262 27.2647H24.68C24.3257 27.2647 23.9858 27.123 23.7353 26.8707C23.4847 26.6185 23.344 26.2764 23.344 25.9197C23.344 25.563 23.4847 25.2209 23.7353 24.9687C23.9858 24.7164 24.3257 24.5747 24.68 24.5747H27.32C27.5843 24.5746 27.8428 24.6534 28.0627 24.8012C28.2825 24.9489 28.4539 25.159 28.5551 25.4049C28.6563 25.6508 28.6827 25.9213 28.6311 26.1823C28.5795 26.4433 28.4521 26.683 28.2651 26.8711H28.2713ZM36.0823 37.4016C35.9585 37.5266 35.8113 37.6257 35.6494 37.6932C35.4874 37.7607 35.3137 37.7954 35.1384 37.7952H32.491C32.1367 37.7952 31.7969 37.6535 31.5463 37.4012C31.2957 37.149 31.155 36.8069 31.155 36.4502C31.155 36.0935 31.2957 35.7514 31.5463 35.4992C31.7969 35.2469 32.1367 35.1052 32.491 35.1052H35.1335C35.3977 35.1053 35.656 35.1843 35.8757 35.3322C36.0954 35.48 36.2665 35.6902 36.3676 35.936C36.4686 36.1818 36.495 36.4522 36.4433 36.7131C36.3917 36.974 36.2643 37.2136 36.0774 37.4016H36.0823ZM36.0823 32.1364C35.9579 32.2619 35.81 32.3613 35.6471 32.4289C35.4842 32.4964 35.3096 32.5308 35.1335 32.5299H32.491C32.1367 32.5299 31.7969 32.3882 31.5463 32.136C31.2957 31.8838 31.155 31.5417 31.155 31.185C31.155 30.8283 31.2957 30.4862 31.5463 30.2339C31.7969 29.9817 32.1367 29.84 32.491 29.84H35.1335C35.3977 29.8401 35.656 29.9191 35.8757 30.0669C36.0954 30.2148 36.2665 30.4249 36.3676 30.6707C36.4686 30.9165 36.495 31.187 36.4433 31.4479C36.3917 31.7088 36.2643 31.9484 36.0774 32.1364H36.0823ZM36.0823 26.8711C35.9585 26.9961 35.8113 27.0952 35.6494 27.1627C35.4874 27.2302 35.3137 27.2649 35.1384 27.2647H32.491C32.1367 27.2647 31.7969 27.123 31.5463 26.8707C31.2957 26.6185 31.155 26.2764 31.155 25.9197C31.155 25.563 31.2957 25.2209 31.5463 24.9687C31.7969 24.7164 32.1367 24.5747 32.491 24.5747H35.1335C35.3977 24.5748 35.656 24.6538 35.8757 24.8017C36.0954 24.9495 36.2665 25.1597 36.3676 25.4055C36.4686 25.6513 36.495 25.9217 36.4433 26.1826C36.3917 26.4435 36.2643 26.6831 36.0774 26.8711H36.0823Z" fill="#2A3A15"/>
<path d="M0 48.539C0.000327946 49.8303 0.510048 51.0686 1.4171 51.9817C2.32415 52.8947 3.55428 53.4079 4.83704 53.4082H47.163C48.4457 53.4079 49.6759 52.8947 50.5829 51.9817C51.49 51.0686 51.9997 49.8303 52 48.539V45.5938H0V48.539Z" fill="#2A3A15"/>
</svg>
