<svg width="60" height="38" viewBox="0 0 60 38" fill="none" xmlns="http://www.w3.org/2000/svg">
<path d="M60 34.1191H0V37.943H60V34.1191Z" fill="#2A3A15"/>
<path d="M29.3085 10.543C28.2024 10.7428 26.8125 11.3264 26.8125 12.5405C26.8125 13.7018 28.1679 14.3255 29.3085 14.5357V10.543Z" fill="#2A3A15"/>
<path d="M28.9025 30.4815C29.6699 30.5887 30.4485 30.5887 31.2159 30.4815H60V0.386719H0V30.4815H28.9025ZM37.499 4.22897H49.6127C49.3999 5.19718 49.4342 6.20338 49.7125 7.15484C49.9907 8.10631 50.504 8.97243 51.2049 9.6734C51.9059 10.3744 52.772 10.8876 53.7235 11.1659C54.675 11.4441 55.6812 11.4784 56.6494 11.2656V20.819C55.0838 20.819 53.5824 21.4409 52.4754 22.5479C51.3684 23.6549 50.7464 25.1564 50.7464 26.7219H37.499C39.7825 23.9594 41.2195 19.9449 41.2195 15.4755C41.2195 11.006 39.7825 6.99149 37.499 4.22897ZM25.1464 12.5406C25.1464 10.1802 27.4437 9.10386 29.3056 8.85575V7.13277H30.9689V8.85575C32.8366 9.10386 35.1282 10.1802 35.1282 12.5406H33.4649C33.4649 11.3265 32.0762 10.743 30.9689 10.5431V14.6783C32.8366 14.9252 35.1282 16.0015 35.1282 18.362C35.1282 20.7225 32.8366 21.7999 30.9689 22.0469V23.7699H29.3056V22.0538C27.1634 21.7896 25.1464 20.5169 25.1464 18.3632H26.8096C26.8096 19.5118 28.1007 20.1505 29.3056 20.3595V16.2244C27.3644 15.9613 25.1464 14.7909 25.1464 12.5406ZM3.86982 11.4035C4.75275 11.4028 5.62429 11.2041 6.42032 10.8222C7.21635 10.4402 7.91662 9.88461 8.4696 9.1963C9.02259 8.50799 9.41422 7.70445 9.61569 6.84482C9.81716 5.98518 9.82334 5.09131 9.63377 4.22897H22.6136C20.33 6.98574 18.8931 11.006 18.8931 15.4755C18.8931 19.9449 20.33 23.9594 22.6136 26.7219H9.77161C9.77176 25.9468 9.61922 25.1792 9.32269 24.4631C9.02617 23.7469 8.59147 23.0961 8.04342 22.548C7.49537 21.9998 6.84472 21.565 6.1286 21.2684C5.41249 20.9717 4.64495 20.819 3.86982 20.819V11.4035Z" fill="#2A3A15"/>
<path d="M33.4648 18.3636C33.4648 17.1494 32.0761 16.5659 30.9688 16.3672V20.3599C32.0761 20.1612 33.4648 19.5777 33.4648 18.3636Z" fill="#2A3A15"/>
<path d="M48.3008 19.0028H49.2875C49.7189 19.0029 50.1462 18.918 50.5448 18.753C50.9435 18.5879 51.3057 18.346 51.6108 18.0409C51.9159 17.7358 52.1578 17.3736 52.3229 16.9749C52.4879 16.5763 52.5728 16.1491 52.5726 15.7176V15.1536C52.5714 14.2831 52.2248 13.4487 51.6088 12.8336C50.9929 12.2185 50.158 11.873 49.2875 11.873H48.3008C47.8693 11.873 47.442 11.9581 47.0433 12.1232C46.6447 12.2884 46.2825 12.5305 45.9774 12.8357C45.6724 13.1408 45.4304 13.5031 45.2654 13.9018C45.1003 14.3005 45.0155 14.7278 45.0156 15.1593V15.7233C45.0168 16.5937 45.3635 17.428 45.9795 18.0429C46.5955 18.6578 47.4304 19.0031 48.3008 19.0028Z" fill="#2A3A15"/>
<path d="M11.7339 11.8672H10.7461C8.93175 11.8672 7.46094 13.338 7.46094 15.1523V15.7175C7.46094 17.5318 8.93175 19.0026 10.7461 19.0026H11.7339C13.5483 19.0026 15.0191 17.5318 15.0191 15.7175V15.1523C15.0191 13.338 13.5483 11.8672 11.7339 11.8672Z" fill="#2A3A15"/>
</svg>
