<svg width="59" height="49" viewBox="0 0 59 49" fill="none" xmlns="http://www.w3.org/2000/svg">
<path d="M10.4682 40.6494H10.1139C9.89745 40.5729 9.70946 40.4324 9.57493 40.2464C9.4404 40.0604 9.36571 39.8379 9.36082 39.6084V31.1699H4.79825C4.2071 31.17 3.62189 31.0519 3.07711 30.8224C2.53233 30.5929 2.039 30.2567 1.62618 29.8335C1.21337 29.4104 0.889423 28.9089 0.673437 28.3586C0.457451 27.8084 0.353793 27.2204 0.368572 26.6294V4.70253C0.353793 4.11156 0.457451 3.52362 0.673437 2.97334C0.889423 2.42306 1.21337 1.92157 1.62618 1.49844C2.039 1.0753 2.53233 0.739075 3.07711 0.50957C3.62189 0.280065 4.2071 0.161925 4.79825 0.16211H40.6122C41.2085 0.16211 41.7989 0.279551 42.3497 0.507728C42.9006 0.735906 43.4011 1.07035 43.8228 1.49197C44.2444 1.91359 44.5788 2.41412 44.807 2.96499C45.0352 3.51586 45.1526 4.10627 45.1526 4.70253V26.6294C45.1526 27.8336 44.6743 28.9885 43.8228 29.84C42.9713 30.6915 41.8164 31.1699 40.6122 31.1699H18.2645L11.3542 40.2064C11.2522 40.3452 11.1187 40.4578 10.9647 40.5349C10.8106 40.6119 10.6405 40.6511 10.4682 40.6494ZM4.79825 2.37695C4.49784 2.37657 4.20048 2.43732 3.92429 2.55548C3.64809 2.67365 3.39881 2.84677 3.19163 3.06431C2.98445 3.28185 2.82369 3.53927 2.71913 3.8209C2.61457 4.10253 2.56839 4.40249 2.58341 4.70253V26.6294C2.58273 27.2275 2.81249 27.8028 3.22495 28.2359C3.63741 28.669 4.20086 28.9265 4.79825 28.955H10.4682C10.7619 28.955 11.0436 29.0717 11.2513 29.2794C11.459 29.4871 11.5757 29.7687 11.5757 30.0624V36.264L16.8248 29.3758C16.9334 29.246 17.0688 29.1411 17.2217 29.0685C17.3747 28.9958 17.5415 28.9571 17.7108 28.955H40.6122C41.2272 28.9492 41.8154 28.7024 42.2503 28.2675C42.6851 27.8326 42.932 27.2444 42.9378 26.6294V4.70253C42.9537 4.39293 42.9044 4.08345 42.7932 3.79409C42.6819 3.50473 42.5112 3.24195 42.292 3.02274C42.0728 2.80354 41.81 2.63279 41.5206 2.52154C41.2313 2.4103 40.9218 2.36104 40.6122 2.37695H4.79825Z" fill="#464646"/>
<path d="M50.1818 48.1786C50.0152 48.1795 49.8506 48.142 49.7008 48.069C49.551 47.996 49.42 47.8895 49.318 47.7578L43.5151 40.4267H25.5085C24.4915 40.4213 23.5164 40.021 22.7891 39.3102C22.0617 38.5994 21.6391 37.6337 21.6104 36.6171V18.4776C21.5986 17.9572 21.6906 17.4397 21.8809 16.9553C22.0713 16.4709 22.3562 16.0292 22.719 15.656C23.0819 15.2828 23.5154 14.9857 23.9944 14.7818C24.4733 14.578 24.988 14.4716 25.5085 14.4688H54.9659C56.0076 14.4687 57.007 14.8811 57.7458 15.6156C58.4845 16.3502 58.9024 17.3473 58.9083 18.389V36.6171C58.9024 37.6589 58.4845 38.656 57.7458 39.3905C57.007 40.1251 56.0076 40.5374 54.9659 40.5374H51.2892V47.1819C51.2843 47.4114 51.2097 47.6339 51.0751 47.8199C50.9406 48.0059 50.7526 48.1465 50.5362 48.2229C50.4164 48.2296 50.2963 48.2146 50.1818 48.1786ZM25.5085 16.6836C25.0562 16.6836 24.6224 16.8633 24.3026 17.1831C23.9827 17.5029 23.8031 17.9367 23.8031 18.389V36.6171C23.8001 36.8419 23.8422 37.065 23.9268 37.2733C24.0115 37.4815 24.137 37.6707 24.2959 37.8297C24.4549 37.9887 24.6441 38.1142 24.8524 38.1988C25.0606 38.2835 25.2837 38.3256 25.5085 38.3226H44.0246C44.1906 38.3249 44.3541 38.3638 44.5034 38.4366C44.6527 38.5093 44.7842 38.6141 44.8883 38.7434L49.0522 43.9926V39.3192C49.0522 39.0255 49.1689 38.7439 49.3766 38.5362C49.5843 38.3285 49.866 38.2118 50.1597 38.2118H54.9659C55.1917 38.2148 55.4158 38.1728 55.6253 38.0884C55.8348 38.004 56.0254 37.8789 56.1861 37.7202C56.3468 37.5616 56.4744 37.3726 56.5615 37.1642C56.6486 36.9558 56.6935 36.7322 56.6934 36.5064V18.4776C56.7024 18.2452 56.6643 18.0134 56.5815 17.7961C56.4987 17.5787 56.3729 17.3804 56.2115 17.2128C56.0502 17.0453 55.8567 16.9121 55.6427 16.8212C55.4286 16.7302 55.1984 16.6834 54.9659 16.6836H25.5085Z" fill="#464646"/>
</svg>
