<svg width="24" height="25" viewBox="0 0 24 25" fill="none" xmlns="http://www.w3.org/2000/svg">
<path d="M19.03 7.77672L20.45 6.35672C20 5.84672 19.55 5.38672 19.04 4.94672L17.62 6.38672C16.07 5.12672 14.12 4.38672 12 4.38672C9.61305 4.38672 7.32387 5.33493 5.63604 7.02276C3.94821 8.71058 3 10.9998 3 13.3867C3 15.7737 3.94821 18.0629 5.63604 19.7507C7.32387 21.4385 9.61305 22.3867 12 22.3867C17 22.3867 21 18.3567 21 13.3867C21 11.2667 20.26 9.31672 19.03 7.77672ZM13 14.3867H11V7.38672H13V14.3867ZM15 1.38672H9V3.38672H15V1.38672Z" fill="#9DBC78"/>
</svg>
