<svg width="49" height="53" viewBox="0 0 49 53" fill="none" xmlns="http://www.w3.org/2000/svg">
<path d="M0 50.2582C0.000366237 50.9554 0.279813 51.6239 0.776903 52.1167C1.27399 52.6096 1.94804 52.8864 2.65085 52.8864H45.6349C46.3377 52.8864 47.0117 52.6096 47.5088 52.1167C48.0059 51.6239 48.2853 50.9554 48.2857 50.2582V18.1426H0V50.2582ZM39.4712 27.2372C39.4712 27.1046 39.5243 26.9774 39.6189 26.8836C39.7134 26.7898 39.8417 26.7371 39.9754 26.7371H43.567C43.7006 26.7374 43.8286 26.7902 43.9231 26.884C44.0176 26.9777 44.0708 27.1047 44.0712 27.2372V30.8C44.0712 30.9327 44.018 31.0599 43.9235 31.1537C43.8289 31.2475 43.7007 31.3002 43.567 31.3002H39.9754C39.9091 31.3003 39.8435 31.2875 39.7822 31.2625C39.721 31.2374 39.6653 31.2006 39.6185 31.1541C39.5716 31.1076 39.5345 31.0524 39.5092 30.9916C39.4839 30.9309 39.471 30.8657 39.4712 30.8V27.2372ZM39.4712 36.0195C39.4712 35.9538 39.4843 35.8889 39.5096 35.8283C39.535 35.7677 39.5721 35.7126 39.619 35.6663C39.6658 35.6199 39.7214 35.5832 39.7826 35.5582C39.8437 35.5333 39.9093 35.5205 39.9754 35.5207H43.567C43.7004 35.5207 43.8285 35.5732 43.923 35.6667C44.0175 35.7602 44.0708 35.8871 44.0712 36.0195V39.5822C44.0708 39.7146 44.0175 39.8415 43.923 39.935C43.8285 40.0285 43.7004 40.081 43.567 40.081H39.9754C39.9093 40.0812 39.8437 40.0684 39.7826 40.0434C39.7214 40.0185 39.6658 39.9817 39.619 39.9354C39.5721 39.8891 39.535 39.834 39.5096 39.7734C39.4843 39.7128 39.4712 39.6479 39.4712 39.5822V36.0195ZM39.4712 44.8031C39.471 44.7373 39.4839 44.6722 39.5092 44.6114C39.5345 44.5507 39.5716 44.4955 39.6185 44.449C39.6653 44.4025 39.721 44.3657 39.7822 44.3406C39.8435 44.3155 39.9091 44.3027 39.9754 44.3029H43.567C43.7007 44.3029 43.8289 44.3556 43.9235 44.4494C44.018 44.5432 44.0712 44.6704 44.0712 44.8031V48.3658C44.0708 48.4984 44.0176 48.6254 43.9231 48.7191C43.8286 48.8128 43.7006 48.8656 43.567 48.866H39.9754C39.8417 48.866 39.7134 48.8133 39.6189 48.7195C39.5243 48.6257 39.4712 48.4985 39.4712 48.3658V44.8031ZM30.6954 27.2318C30.6954 27.0991 30.7485 26.9719 30.8431 26.8781C30.9376 26.7843 31.0659 26.7316 31.1996 26.7316H34.7911C34.9247 26.732 35.0528 26.7848 35.1473 26.8785C35.2417 26.9722 35.295 27.0992 35.2953 27.2318V30.7945C35.2953 30.9272 35.2422 31.0544 35.1477 31.1482C35.0531 31.242 34.9249 31.2947 34.7911 31.2947H31.1996C31.1333 31.2949 31.0677 31.282 31.0064 31.257C30.9452 31.2319 30.8895 31.1951 30.8426 31.1486C30.7958 31.1021 30.7587 31.0469 30.7334 30.9861C30.7081 30.9254 30.6952 30.8603 30.6954 30.7945V27.2318ZM30.6954 36.014C30.6954 35.9484 30.7084 35.8834 30.7338 35.8228C30.7591 35.7622 30.7963 35.7071 30.8431 35.6608C30.89 35.6145 30.9456 35.5778 31.0067 35.5528C31.0679 35.5278 31.1334 35.515 31.1996 35.5152H34.7911C34.9246 35.5152 35.0527 35.5677 35.1472 35.6612C35.2417 35.7547 35.295 35.8816 35.2953 36.014V39.5768C35.295 39.7092 35.2417 39.836 35.1472 39.9295C35.0527 40.023 34.9246 40.0755 34.7911 40.0755H31.1996C31.1334 40.0757 31.0679 40.063 31.0067 40.038C30.9456 40.013 30.89 39.9763 30.8431 39.9299C30.7963 39.8836 30.7591 39.8286 30.7338 39.7679C30.7084 39.7073 30.6954 39.6424 30.6954 39.5768V36.014ZM30.6954 44.7976C30.6952 44.7318 30.7081 44.6667 30.7334 44.606C30.7587 44.5452 30.7958 44.49 30.8426 44.4435C30.8895 44.397 30.9452 44.3602 31.0064 44.3351C31.0677 44.3101 31.1333 44.2972 31.1996 44.2974H34.7911C34.9249 44.2974 35.0531 44.3501 35.1477 44.4439C35.2422 44.5377 35.2953 44.6649 35.2953 44.7976V48.3604C35.295 48.4929 35.2417 48.6199 35.1473 48.7136C35.0528 48.8073 34.9247 48.8601 34.7911 48.8605H31.1996C31.0659 48.8605 30.9376 48.8078 30.8431 48.714C30.7485 48.6202 30.6954 48.493 30.6954 48.3604V44.7976ZM21.9195 27.2318C21.9195 27.0991 21.9727 26.9719 22.0672 26.8781C22.1618 26.7843 22.29 26.7316 22.4237 26.7316H26.0153C26.1489 26.732 26.2769 26.7848 26.3714 26.8785C26.4659 26.9722 26.5191 27.0992 26.5195 27.2318V30.7945C26.5195 30.9272 26.4664 31.0544 26.3718 31.1482C26.2773 31.242 26.149 31.2947 26.0153 31.2947H22.4237C22.3575 31.2949 22.2918 31.282 22.2306 31.257C22.1693 31.2319 22.1137 31.1951 22.0668 31.1486C22.02 31.1021 21.9828 31.0469 21.9576 30.9861C21.9323 30.9254 21.9194 30.8603 21.9195 30.7945V27.2318ZM21.9195 36.014C21.9195 35.9484 21.9326 35.8834 21.958 35.8228C21.9833 35.7622 22.0205 35.7071 22.0673 35.6608C22.1141 35.6145 22.1697 35.5778 22.2309 35.5528C22.2921 35.5278 22.3576 35.515 22.4237 35.5152H26.0153C26.1488 35.5152 26.2768 35.5677 26.3713 35.6612C26.4659 35.7547 26.5191 35.8816 26.5195 36.014V39.5768C26.5191 39.7092 26.4659 39.836 26.3713 39.9295C26.2768 40.023 26.1488 40.0755 26.0153 40.0755H22.4237C22.3576 40.0757 22.2921 40.063 22.2309 40.038C22.1697 40.013 22.1141 39.9763 22.0673 39.9299C22.0205 39.8836 21.9833 39.8286 21.958 39.7679C21.9326 39.7073 21.9195 39.6424 21.9195 39.5768V36.014ZM21.9195 44.7976C21.9194 44.7318 21.9323 44.6667 21.9576 44.606C21.9828 44.5452 22.02 44.49 22.0668 44.4435C22.1137 44.397 22.1693 44.3602 22.2306 44.3351C22.2918 44.3101 22.3575 44.2972 22.4237 44.2974H26.0153C26.149 44.2974 26.2773 44.3501 26.3718 44.4439C26.4664 44.5377 26.5195 44.6649 26.5195 44.7976V48.3604C26.5191 48.4929 26.4659 48.6199 26.3714 48.7136C26.2769 48.8073 26.1489 48.8601 26.0153 48.8605H22.4237C22.29 48.8605 22.1618 48.8078 22.0672 48.714C21.9727 48.6202 21.9195 48.493 21.9195 48.3604V44.7976ZM13.1437 27.2318C13.1437 27.0991 13.1968 26.9719 13.2914 26.8781C13.3859 26.7843 13.5142 26.7316 13.6479 26.7316H17.2395C17.3732 26.7316 17.5014 26.7843 17.596 26.8781C17.6905 26.9719 17.7437 27.0991 17.7437 27.2318V30.7945C17.7439 30.8603 17.7309 30.9254 17.7057 30.9861C17.6804 31.0469 17.6433 31.1021 17.5964 31.1486C17.5495 31.1951 17.4939 31.2319 17.4326 31.257C17.3714 31.282 17.3057 31.2949 17.2395 31.2947H13.6479C13.5817 31.2949 13.516 31.282 13.4548 31.257C13.3935 31.2319 13.3378 31.1951 13.291 31.1486C13.2441 31.1021 13.207 31.0469 13.1817 30.9861C13.1565 30.9254 13.1435 30.8603 13.1437 30.7945V27.2318ZM13.1437 36.014C13.1437 35.9484 13.1568 35.8834 13.1821 35.8228C13.2075 35.7622 13.2446 35.7071 13.2915 35.6608C13.3383 35.6145 13.3939 35.5778 13.4551 35.5528C13.5162 35.5278 13.5818 35.515 13.6479 35.5152H17.2395C17.3056 35.515 17.3712 35.5278 17.4323 35.5528C17.4935 35.5778 17.5491 35.6145 17.5959 35.6608C17.6427 35.7071 17.6799 35.7622 17.7053 35.8228C17.7306 35.8834 17.7437 35.9484 17.7437 36.014V39.5768C17.7437 39.6424 17.7306 39.7073 17.7053 39.7679C17.6799 39.8286 17.6427 39.8836 17.5959 39.9299C17.5491 39.9763 17.4935 40.013 17.4323 40.038C17.3712 40.063 17.3056 40.0757 17.2395 40.0755H13.6479C13.5818 40.0757 13.5162 40.063 13.4551 40.038C13.3939 40.013 13.3383 39.9763 13.2915 39.9299C13.2446 39.8836 13.2075 39.8286 13.1821 39.7679C13.1568 39.7073 13.1437 39.6424 13.1437 39.5768V36.014ZM13.1437 44.7976C13.1435 44.7318 13.1565 44.6667 13.1817 44.606C13.207 44.5452 13.2441 44.49 13.291 44.4435C13.3378 44.397 13.3935 44.3602 13.4548 44.3351C13.516 44.3101 13.5817 44.2972 13.6479 44.2974H17.2395C17.3057 44.2972 17.3714 44.3101 17.4326 44.3351C17.4939 44.3602 17.5495 44.397 17.5964 44.4435C17.6433 44.49 17.6804 44.5452 17.7057 44.606C17.7309 44.6667 17.7439 44.7318 17.7437 44.7976V48.3604C17.7437 48.493 17.6905 48.6202 17.596 48.714C17.5014 48.8078 17.3732 48.8605 17.2395 48.8605H13.6479C13.5142 48.8605 13.3859 48.8078 13.2914 48.714C13.1968 48.6202 13.1437 48.493 13.1437 48.3604V44.7976ZM4.36789 27.2318C4.36789 27.0991 4.42101 26.9719 4.51556 26.8781C4.61012 26.7843 4.73836 26.7316 4.87208 26.7316H8.46364C8.59736 26.7316 8.72561 26.7843 8.82016 26.8781C8.91472 26.9719 8.96784 27.0991 8.96784 27.2318V30.7945C8.96802 30.8603 8.95511 30.9254 8.92983 30.9861C8.90456 31.0469 8.86743 31.1021 8.82057 31.1486C8.77372 31.1951 8.71806 31.2319 8.65681 31.257C8.59555 31.282 8.5299 31.2949 8.46364 31.2947H4.87208C4.80582 31.2949 4.74018 31.282 4.67892 31.257C4.61767 31.2319 4.56201 31.1951 4.51516 31.1486C4.4683 31.1021 4.43117 31.0469 4.40589 30.9861C4.38062 30.9254 4.3677 30.8603 4.36789 30.7945V27.2318ZM4.36789 36.014C4.36789 35.9484 4.38094 35.8834 4.40629 35.8228C4.43165 35.7622 4.46881 35.7071 4.51565 35.6608C4.56248 35.6145 4.61808 35.5778 4.67924 35.5528C4.7404 35.5278 4.80594 35.515 4.87208 35.5152H8.46364C8.52979 35.515 8.59532 35.5278 8.65649 35.5528C8.71765 35.5778 8.77324 35.6145 8.82008 35.6608C8.86692 35.7071 8.90408 35.7622 8.92943 35.8228C8.95479 35.8834 8.96784 35.9484 8.96784 36.014V39.5768C8.96802 39.6426 8.95506 39.7078 8.9297 39.7687C8.90434 39.8295 8.86709 39.8848 8.82008 39.9313C8.77308 39.9778 8.71726 40.0146 8.65585 40.0396C8.59443 40.0646 8.52864 40.0773 8.46226 40.0769H4.8707C4.80456 40.0771 4.73902 40.0643 4.67786 40.0393C4.61669 40.0144 4.5611 39.9776 4.51426 39.9313C4.46743 39.885 4.43027 39.8299 4.40491 39.7693C4.37956 39.7087 4.3665 39.6437 4.3665 39.5781L4.36789 36.014ZM4.36789 44.7976C4.3677 44.7318 4.38062 44.6667 4.40589 44.606C4.43117 44.5452 4.4683 44.49 4.51516 44.4435C4.56201 44.397 4.61767 44.3602 4.67892 44.3351C4.74018 44.3101 4.80582 44.2972 4.87208 44.2974H8.46364C8.5299 44.2972 8.59555 44.3101 8.65681 44.3351C8.71806 44.3602 8.77372 44.397 8.82057 44.4435C8.86743 44.49 8.90456 44.5452 8.92983 44.606C8.95511 44.6667 8.96802 44.7318 8.96784 44.7976V48.3604C8.96784 48.493 8.91472 48.6202 8.82016 48.714C8.72561 48.8078 8.59736 48.8605 8.46364 48.8605H4.87208C4.73836 48.8605 4.61012 48.8078 4.51556 48.714C4.42101 48.6202 4.36789 48.493 4.36789 48.3604V44.7976Z" fill="#2A3A15"/>
<path d="M46.0465 5.14286H43.8004V3.11345C43.8 2.523 43.5634 1.95683 43.1425 1.53931C42.7217 1.1218 42.1509 0.887082 41.5557 0.886719H37.4655C36.871 0.888169 36.3013 1.12337 35.8813 1.54076C35.4613 1.95816 35.2252 2.52371 35.2249 3.11345V5.14286H13.0664V3.11345C13.066 2.52276 12.8292 1.95638 12.408 1.53883C11.9868 1.12128 11.4157 0.886719 10.8203 0.886719L6.73002 0.886719C6.1348 0.887082 5.56406 1.1218 5.14317 1.53931C4.72228 1.95683 4.48567 2.523 4.4853 3.11345V5.14286H2.2392C1.64533 5.14286 1.07578 5.37688 0.655846 5.79345C0.235915 6.21001 0 6.775 0 7.36411L0 13.6551H48.2857V7.36411C48.2857 6.775 48.0498 6.21001 47.6299 5.79345C47.2099 5.37688 46.6404 5.14286 46.0465 5.14286Z" fill="#2A3A15"/>
</svg>
