<svg width="60" height="54" viewBox="0 0 60 54" fill="none" xmlns="http://www.w3.org/2000/svg">
<path d="M41.9375 9.02133L51.3333 18.3937C51.7292 18.7885 51.7292 19.4327 51.3333 19.8276L28.5833 42.5207L18.9167 43.5909C17.625 43.7364 16.5313 42.6454 16.6771 41.3569L17.75 31.7144L40.5 9.02133C40.8958 8.62648 41.5417 8.62648 41.9375 9.02133ZM58.8125 6.64187L53.7292 1.57125C52.1458 -0.00812495 49.5729 -0.00812495 47.9792 1.57125L44.2917 5.24953C43.8958 5.64437 43.8958 6.28859 44.2917 6.68344L53.6875 16.0558C54.0833 16.4506 54.7292 16.4506 55.125 16.0558L58.8125 12.3775C60.3958 10.7877 60.3958 8.22125 58.8125 6.64187ZM40 36.3487V46.9263H6.66667V13.6763H30.6042C30.9375 13.6763 31.25 13.5412 31.4896 13.3127L35.6562 9.15641C36.4479 8.36672 35.8854 7.02633 34.7708 7.02633H5C2.23958 7.02633 0 9.26031 0 12.0138V48.5888C0 51.3423 2.23958 53.5763 5 53.5763H41.6667C44.4271 53.5763 46.6667 51.3423 46.6667 48.5888V32.1924C46.6667 31.0806 45.3229 30.5299 44.5312 31.3092L40.3646 35.4655C40.1354 35.7044 40 36.0162 40 36.3487Z" fill="#2A3A15"/>
</svg>
