<svg xmlns="http://www.w3.org/2000/svg" viewBox="0 0 139.09 49"><title>LBM</title><g id="Capa_2" data-name="Capa 2"><g id="Capa_1-2" data-name="Capa 1"><path d="M14.12,37H34.19V49H0V0H14.12Z"/><path d="M77.34,28.11a12.06,12.06,0,0,1,2.54,7.54,12,12,0,0,1-4.31,9.8C72.7,47.82,68.66,49,63.48,49H39.22V0H62.71q7.51,0,11.78,3.34a11.21,11.21,0,0,1,4.28,9.38,11.34,11.34,0,0,1-2.26,7.19,11.23,11.23,0,0,1-6,3.93A11.53,11.53,0,0,1,77.34,28.11Zm-24.23-9h6.25q5.14,0,5.14-4.24t-5.14-4.38H53.11ZM65.55,33.71a4.31,4.31,0,0,0-1.36-3.41,5.73,5.73,0,0,0-3.86-1.18H53.11V38H60.4Q65.55,38,65.55,33.71Z"/><path d="M139.09,0V48.8h-12.6V15.5l-8.55,33.3H107.39L98.78,15.29V48.8H86.18V0h19.4l7,25.45L119.73,0Z"/></g></g></svg>