<svg width="50" height="58" viewBox="0 0 50 58" fill="none" xmlns="http://www.w3.org/2000/svg">
<path d="M37.4669 51.1408C37.2197 51.1456 36.978 51.0677 36.7803 50.9193L31.7969 47.0212L33.1479 45.2714L37.2675 48.483L43.004 40.9082L44.7758 42.2593L38.3528 50.7199C38.1643 50.9507 37.8951 51.1012 37.5998 51.1408H37.4669Z" fill="#464646"/>
<path d="M38.2007 57.253C35.936 57.253 33.7221 56.5814 31.839 55.3232C29.956 54.065 28.4883 52.2766 27.6216 50.1843C26.755 48.0919 26.5282 45.7896 26.97 43.5684C27.4119 41.3471 28.5024 39.3068 30.1038 37.7054C31.7053 36.104 33.7456 35.0134 35.9668 34.5716C38.188 34.1298 40.4904 34.3565 42.5827 35.2232C44.6751 36.0899 46.4634 37.5575 47.7216 39.4406C48.9799 41.3237 49.6514 43.5376 49.6514 45.8023C49.6514 48.8392 48.445 51.7517 46.2976 53.8992C44.1502 56.0466 41.2376 57.253 38.2007 57.253ZM38.2007 36.5886C36.3731 36.5886 34.5866 37.1308 33.0672 38.1466C31.5479 39.1625 30.3642 40.6062 29.6658 42.2952C28.9674 43.9841 28.7858 45.8422 29.144 47.6344C29.5021 49.4266 30.384 51.0723 31.6778 52.363C32.9717 53.6538 34.6195 54.5317 36.4125 54.8855C38.2056 55.2394 40.0633 55.0533 41.7505 54.3509C43.4378 53.6485 44.8787 52.4612 45.8909 50.9395C46.903 49.4177 47.441 47.6299 47.4366 45.8023C47.4307 43.3566 46.4551 41.0131 44.7237 39.2859C42.9922 37.5586 40.6464 36.5886 38.2007 36.5886Z" fill="#464646"/>
<path d="M41.8979 32.868H39.683V4.76171H29.5391V2.54688H40.879C41.171 2.55255 41.4494 2.67104 41.6558 2.87751C41.8623 3.08397 41.9808 3.36236 41.9865 3.65429L41.8979 32.868Z" fill="#464646"/>
<path d="M27.8809 54.7063H1.16992C0.876214 54.7063 0.594538 54.5897 0.386857 54.382C0.179176 54.1743 0.0625 53.8926 0.0625 53.5989V3.65429C0.0681702 3.36236 0.186665 3.08397 0.39313 2.87751C0.599595 2.67104 0.877989 2.55255 1.16992 2.54688H12.4435V4.76171H2.27734V52.4915H27.8809V54.7063Z" fill="#464646"/>
<path d="M26.6131 8.63756H15.4282C14.3532 8.63756 13.3223 8.21053 12.5621 7.45042C11.802 6.69031 11.375 5.65937 11.375 4.58441C11.375 3.50944 11.802 2.47851 12.5621 1.71839C13.3223 0.958278 14.3532 0.53125 15.4282 0.53125H26.6131C27.6881 0.53125 28.719 0.958278 29.4791 1.71839C30.2392 2.47851 30.6663 3.50944 30.6663 4.58441C30.6663 5.65937 30.2392 6.69031 29.4791 7.45042C28.719 8.21053 27.6881 8.63756 26.6131 8.63756ZM15.4282 2.74609C14.9406 2.74609 14.473 2.93977 14.1283 3.28452C13.7835 3.62927 13.5898 4.09685 13.5898 4.58441C13.5898 5.07196 13.7835 5.53954 14.1283 5.88429C14.473 6.22904 14.9406 6.42272 15.4282 6.42272H26.6131C27.1006 6.42272 27.5682 6.22904 27.913 5.88429C28.2577 5.53954 28.4514 5.07196 28.4514 4.58441C28.4514 4.09685 28.2577 3.62927 27.913 3.28452C27.5682 2.93977 27.1006 2.74609 26.6131 2.74609H15.4282Z" fill="#464646"/>
<path d="M9.8049 20.8418C9.53715 20.8445 9.27749 20.7501 9.074 20.5761L6.10612 17.9404C5.88584 17.7436 5.75275 17.4674 5.73614 17.1725C5.71953 16.8776 5.82074 16.5881 6.01753 16.3679C6.21431 16.1476 6.49054 16.0145 6.78544 15.9979C7.08035 15.9813 7.36978 16.0825 7.59006 16.2793L9.58342 18.0511L12.5292 13.6215C12.5962 13.4778 12.6933 13.3503 12.8138 13.2474C12.9344 13.1445 13.0757 13.0687 13.228 13.0251C13.3804 12.9815 13.5404 12.9712 13.6971 12.9947C13.8539 13.0182 14.0037 13.0752 14.1366 13.1616C14.2694 13.248 14.3822 13.362 14.4672 13.4957C14.5522 13.6295 14.6076 13.7799 14.6295 13.9369C14.6513 14.0939 14.6393 14.2537 14.5941 14.4056C14.5489 14.5575 14.4716 14.698 14.3675 14.8175L10.7351 20.421C10.6471 20.5518 10.5326 20.6628 10.3991 20.7467C10.2656 20.8306 10.116 20.8857 9.95994 20.9083L9.8049 20.8418Z" fill="#464646"/>
<path d="M9.80642 28.7489C9.53619 28.7435 9.27686 28.6413 9.07553 28.461L6.10764 25.8475C5.90332 25.6368 5.78906 25.3548 5.78906 25.0612C5.78906 24.7677 5.90332 24.4857 6.10764 24.275C6.21059 24.1712 6.33307 24.0888 6.46802 24.0326C6.60297 23.9763 6.74771 23.9474 6.89391 23.9474C7.0401 23.9474 7.18485 23.9763 7.3198 24.0326C7.45475 24.0888 7.57723 24.1712 7.68017 24.275L9.67353 26.0468L12.6193 21.6172C12.6921 21.4814 12.7925 21.3623 12.914 21.2675C13.0355 21.1727 13.1754 21.1043 13.3248 21.0667C13.4742 21.0291 13.6299 21.0231 13.7817 21.049C13.9336 21.075 14.0784 21.1324 14.2069 21.2175C14.3353 21.3026 14.4446 21.4136 14.5277 21.5433C14.6108 21.6731 14.6659 21.8188 14.6895 21.971C14.7131 22.1233 14.7047 22.2788 14.6647 22.4276C14.6248 22.5765 14.5542 22.7153 14.4576 22.8353L10.8252 28.4167C10.7372 28.5475 10.6227 28.6585 10.4892 28.7424C10.3557 28.8263 10.2061 28.8814 10.0501 28.904L9.80642 28.7489Z" fill="#464646"/>
<path d="M9.80642 36.4566C9.53619 36.4512 9.27686 36.349 9.07553 36.1687L6.10764 33.5552C5.90332 33.3444 5.78906 33.0624 5.78906 32.7689C5.78906 32.4754 5.90332 32.1934 6.10764 31.9826C6.21059 31.8789 6.33307 31.7965 6.46802 31.7402C6.60297 31.684 6.74771 31.6551 6.89391 31.6551C7.0401 31.6551 7.18485 31.684 7.3198 31.7402C7.45475 31.7965 7.57723 31.8789 7.68017 31.9826L9.67353 33.7545L12.6193 29.3248C12.7924 29.11 13.0394 28.9674 13.3121 28.9252C13.5848 28.8829 13.8634 28.944 14.0934 29.0964C14.3234 29.2488 14.4883 29.4816 14.5556 29.7492C14.623 30.0168 14.588 30.2998 14.4576 30.543L10.8252 36.1244C10.7372 36.2552 10.6227 36.3662 10.4892 36.4501C10.3557 36.534 10.2061 36.5891 10.0501 36.6117L9.80642 36.4566Z" fill="#464646"/>
<path d="M9.8049 44.252C9.67008 44.2548 9.53605 44.2307 9.41058 44.1813C9.28512 44.1319 9.17072 44.0581 9.074 43.9641L6.10612 41.3506C5.88584 41.1538 5.75275 40.8776 5.73614 40.5826C5.71953 40.2877 5.82074 39.9983 6.01753 39.778C6.21431 39.5577 6.49054 39.4247 6.78544 39.408C7.08035 39.3914 7.36978 39.4927 7.59006 39.6894L9.58342 41.4613L12.5292 37.0316C12.6057 36.9073 12.7066 36.7997 12.8258 36.7153C12.9449 36.6309 13.0799 36.5714 13.2226 36.5404C13.3653 36.5094 13.5128 36.5075 13.6562 36.5348C13.7996 36.5621 13.9361 36.6181 14.0574 36.6994C14.3002 36.8618 14.4689 37.1135 14.527 37.3997C14.5851 37.6859 14.5277 37.9835 14.3675 38.2276L10.7351 43.809C10.6483 43.943 10.5345 44.0575 10.4011 44.1452C10.2676 44.2329 10.1174 44.2919 9.95994 44.3185L9.8049 44.252Z" fill="#464646"/>
<path d="M33.3491 18.0508H18.709C18.4153 18.0508 18.1336 17.9341 17.9259 17.7264C17.7182 17.5187 17.6016 17.2371 17.6016 16.9434C17.6016 16.6497 17.7182 16.368 17.9259 16.1603C18.1336 15.9526 18.4153 15.8359 18.709 15.8359H33.3491C33.641 15.8416 33.9194 15.9601 34.1259 16.1666C34.3323 16.373 34.4508 16.6514 34.4565 16.9434C34.4565 17.2371 34.3398 17.5187 34.1321 17.7264C33.9245 17.9341 33.6428 18.0508 33.3491 18.0508Z" fill="#464646"/>
<path d="M33.3491 25.8477H18.709C18.4153 25.8477 18.1336 25.731 17.9259 25.5233C17.7182 25.3156 17.6016 25.0339 17.6016 24.7402C17.6016 24.4465 17.7182 24.1648 17.9259 23.9572C18.1336 23.7495 18.4153 23.6328 18.709 23.6328H33.3491C33.641 23.6385 33.9194 23.757 34.1259 23.9634C34.3323 24.1699 34.4508 24.4483 34.4565 24.7402C34.4565 25.0339 34.3398 25.3156 34.1321 25.5233C33.9244 25.731 33.6428 25.8477 33.3491 25.8477Z" fill="#464646"/>
<path d="M33.3491 34.4844H18.709C18.4153 34.4844 18.1336 34.3677 17.9259 34.16C17.7182 33.9523 17.6016 33.6707 17.6016 33.377C17.6016 33.0832 17.7182 32.8016 17.9259 32.5939C18.1336 32.3862 18.4153 32.2695 18.709 32.2695H33.3491C33.6428 32.2695 33.9244 32.3862 34.1321 32.5939C34.3398 32.8016 34.4565 33.0832 34.4565 33.377C34.4508 33.6689 34.3323 33.9473 34.1259 34.1537C33.9194 34.3602 33.641 34.4787 33.3491 34.4844Z" fill="#464646"/>
<path d="M28.6054 42.6797H18.6387C18.345 42.6797 18.0633 42.563 17.8556 42.3553C17.6479 42.1476 17.5312 41.866 17.5312 41.5723C17.5312 41.2786 17.6479 40.9969 17.8556 40.7892C18.0633 40.5815 18.345 40.4648 18.6387 40.4648H28.6054C28.8992 40.4648 29.1808 40.5815 29.3885 40.7892C29.5962 40.9969 29.7129 41.2786 29.7129 41.5723C29.7129 41.866 29.5962 42.1476 29.3885 42.3553C29.1808 42.563 28.8992 42.6797 28.6054 42.6797Z" fill="#464646"/>
</svg>
