<svg width="53" height="52" viewBox="0 0 53 52" fill="none" xmlns="http://www.w3.org/2000/svg">
<path d="M40.809 51.9994H1.18554C0.891839 51.9994 0.610161 51.8827 0.40248 51.675C0.194798 51.4673 0.078125 51.1856 0.078125 50.8919V1.98828C0.078125 1.69457 0.194798 1.4129 0.40248 1.20521C0.610161 0.997533 0.891839 0.880859 1.18554 0.880859H40.809C41.1027 0.880859 41.3844 0.997533 41.5921 1.20521C41.7998 1.4129 41.9164 1.69457 41.9164 1.98828V25.0226H39.6573V3.0957H2.29296V49.7845H39.6573V34.9008H41.8721V50.8919C41.8724 51.1781 41.7618 51.4533 41.5636 51.6597C41.3654 51.8662 41.095 51.9879 40.809 51.9994Z" fill="#464646"/>
<path d="M24.4634 47.258C24.1745 47.2597 23.8963 47.1484 23.6882 46.9479C23.5393 46.8056 23.4348 46.6231 23.3876 46.4226C23.3405 46.2221 23.3525 46.0121 23.4225 45.8183L25.9474 38.1107C26.0027 37.9403 26.102 37.7875 26.2353 37.6677L45.9474 18.4429C46.0484 18.3398 46.169 18.2579 46.3021 18.2019C46.4352 18.146 46.5782 18.1172 46.7226 18.1172C46.8669 18.1172 47.0099 18.146 47.143 18.2019C47.2761 18.2579 47.3967 18.3398 47.4978 18.4429L52.3704 23.3156C52.4763 23.415 52.5608 23.5351 52.6185 23.6684C52.6762 23.8017 52.706 23.9455 52.706 24.0908C52.706 24.2361 52.6762 24.3798 52.6185 24.5131C52.5608 24.6465 52.4763 24.7665 52.3704 24.866L33.0127 44.268C32.9015 44.3959 32.7552 44.4884 32.5919 44.5337L24.8399 47.2137C24.719 47.2548 24.5907 47.2699 24.4634 47.258ZM27.9629 39.0631L26.2132 44.4451L31.6174 42.6068L50.0227 24.1794L46.7226 20.8571L27.9629 39.0631Z" fill="#464646"/>
<path d="M33.9215 30.248H5.59375V32.4629H33.9215V30.248Z" fill="#464646"/>
<path d="M31.3523 44.4449L26.5461 39.5723H5.59375V37.3574H27.0112C27.3002 37.3557 27.5784 37.467 27.7864 37.6675L33.0135 42.7838L31.3523 44.4449Z" fill="#464646"/>
<path d="M16.0005 24.1581C14.3657 24.151 12.7648 23.6917 11.3749 22.831C9.98497 21.9703 8.86032 20.7419 8.1254 19.2816C7.39047 17.8213 7.07392 16.1861 7.2108 14.5571C7.34767 12.928 7.93263 11.3686 8.90092 10.0514C9.86921 8.73422 11.1831 7.71064 12.6971 7.09396C14.2111 6.47728 15.8663 6.29154 17.4793 6.55731C19.0924 6.82308 20.6004 7.52999 21.8366 8.59979C23.0727 9.66959 23.9888 11.0606 24.4833 12.6188L22.3792 13.2832C21.9243 11.8428 20.9922 10.6003 19.7365 9.76063C18.4808 8.92098 16.9764 8.53426 15.4714 8.66423C13.9664 8.7942 12.5507 9.4331 11.4575 10.4756C10.3643 11.5181 9.659 12.902 9.4578 14.3991C9.25661 15.8962 9.57155 17.4172 10.3507 18.7114C11.1299 20.0055 12.3267 20.9955 13.744 21.5182C15.1613 22.0409 16.7144 22.065 18.1472 21.5867C19.58 21.1083 20.8071 20.156 21.6262 18.8868L23.4866 20.0828C22.6821 21.3367 21.5744 22.3676 20.2659 23.0799C18.9573 23.7922 17.4903 24.163 16.0005 24.1581Z" fill="#464646"/>
<path d="M16.2031 12.7949H5.19531V15.0098H16.2031V12.7949Z" fill="#464646"/>
<path d="M16.2031 16.4277H5.19531V18.6426H16.2031V16.4277Z" fill="#464646"/>
</svg>
