<svg width="53" height="54" viewBox="0 0 53 54" fill="none" xmlns="http://www.w3.org/2000/svg">
<path d="M13.2872 26.0986C13.2726 25.5709 13.0852 25.0625 12.7536 24.6516C12.422 24.2408 11.9647 23.9502 11.4519 23.8245C11.1361 23.7425 10.8109 23.7025 10.4846 23.7057C7.92395 23.7057 5.36138 23.7057 2.79695 23.7057C2.47082 23.6997 2.14541 23.7383 1.8297 23.8203C1.30576 23.9482 0.84021 24.249 0.508231 24.674C0.176252 25.0991 -0.00278305 25.6236 3.27126e-05 26.1629C3.27126e-05 26.3488 3.27126e-05 26.5347 3.27126e-05 26.722V38.6533C3.27126e-05 42.6528 3.27126e-05 46.6504 3.27126e-05 50.6461C3.27126e-05 50.8796 3.27129e-05 51.113 0.0112148 51.345C0.0585784 51.847 0.26308 52.3212 0.595605 52.7001C0.92813 53.0791 1.37173 53.3435 1.86325 53.4556C2.25019 53.5377 2.64461 53.5794 3.04017 53.58C5.41543 53.5726 7.79162 53.5726 10.1688 53.58C10.5638 53.5748 10.9579 53.5379 11.3471 53.4696C11.8334 53.3856 12.2768 53.1393 12.6051 52.7707C13.1404 52.2116 13.3039 51.5449 13.3039 50.7901C13.2872 42.7735 13.283 34.7522 13.2914 26.7262C13.2914 26.518 13.2969 26.3083 13.2872 26.0986ZM6.63521 49.3784C5.98535 49.3784 5.36212 49.1202 4.9026 48.6607C4.44309 48.2012 4.18493 47.5779 4.18493 46.9281C4.18493 46.2782 4.44309 45.655 4.9026 45.1955C5.36212 44.736 5.98535 44.4778 6.63521 44.4778C6.96097 44.4722 7.28456 44.5317 7.58707 44.6527C7.88958 44.7737 8.16492 44.9538 8.39698 45.1824C8.62905 45.4111 8.81318 45.6838 8.9386 45.9845C9.06402 46.2852 9.12821 46.6079 9.12742 46.9337C9.12882 48.3147 8.04555 49.377 6.63521 49.3784Z" fill="#2A3A15"/>
<path d="M52.3105 22.298C51.6575 21.0523 50.6141 20.0551 49.3402 19.4591C48.8976 19.2545 48.4262 19.1192 47.9425 19.058C47.2509 18.9649 46.5532 18.9257 45.8556 18.9406C43.0154 18.949 40.1737 18.9406 37.3293 18.9406C37.1196 18.9406 36.9099 18.9406 36.7003 18.9406C36.2614 18.914 36.1216 18.7043 36.2614 18.2962C36.2767 18.2529 36.3019 18.2123 36.3187 18.169C36.8119 16.8468 37.3967 15.5605 38.0687 14.3196C38.4299 13.6422 38.7347 12.9363 38.98 12.2089C39.2414 11.4653 39.2763 10.6714 39.5237 9.91662C39.5525 9.77877 39.5591 9.63722 39.5433 9.49729C39.5433 8.91582 39.5433 8.33435 39.5433 7.75288C39.5533 7.59031 39.5449 7.42713 39.5182 7.26646C39.3113 6.41103 39.1911 5.53324 38.8654 4.70995C38.5705 3.92873 38.1202 3.21546 37.5417 2.61331C36.9714 2.03604 36.267 1.681 35.5331 1.38188C35.068 1.16904 34.5769 1.01819 34.0725 0.933202C33.4057 0.853529 32.7236 0.901053 32.0485 0.898258C31.8834 0.8878 31.7208 0.942501 31.5956 1.05061C31.3077 1.32178 30.996 1.57058 30.7961 1.92142C30.3713 2.67003 30.0139 3.45493 29.7282 4.26686C29.4609 5.03256 29.2374 5.81284 29.0587 6.60392C28.7504 7.94162 28.3296 9.25086 27.8007 10.5177C27.4977 11.2767 27.0785 11.9841 26.5581 12.6143C26.1108 13.1468 25.6146 13.6403 25.1534 14.163C24.2864 15.1332 23.4771 16.1535 22.7296 17.2185C22.2153 17.9635 21.7414 18.7365 21.2187 19.4759C19.9617 21.2474 18.6012 22.943 17.1442 24.554C17.0365 24.6694 16.9534 24.8055 16.8998 24.9539C16.8462 25.1024 16.8233 25.2602 16.8325 25.4178C16.8423 25.5492 16.8325 25.682 16.8325 25.8148V45.2129C16.8325 45.888 16.8227 46.5631 16.8325 47.2369C16.8437 47.9511 17.2881 48.4054 17.9912 48.4487C18.3186 48.4492 18.6455 48.4725 18.9697 48.5186C20.3576 48.8079 21.6701 49.3251 22.9589 49.9038C23.5305 50.1596 24.0883 50.4517 24.6739 50.6684C25.6929 51.043 26.6895 51.4749 27.7378 51.774C28.0677 51.8676 28.4087 51.9445 28.7344 52.0661C29.2376 52.2534 29.7282 52.4855 30.272 52.5344C30.3799 52.5488 30.4834 52.5864 30.5753 52.6448C30.7365 52.7347 30.9177 52.7827 31.1022 52.7846C31.3129 52.8039 31.5221 52.8371 31.7284 52.8838C32.6412 53.046 33.5455 53.2612 34.4862 53.243C35.9063 53.2165 37.3265 53.243 38.7466 53.2361C39.746 53.2361 40.744 53.278 41.7364 53.0795C42.596 52.9062 43.4738 52.8307 44.3083 52.5204C44.5683 52.4254 44.8185 52.3038 45.0729 52.2017C45.7068 51.9722 46.2947 51.6314 46.8089 51.1953C47.3739 50.7067 47.8037 50.081 48.0571 49.3782C48.3823 48.5038 48.4658 47.5579 48.2989 46.64C48.2428 46.4162 48.2378 46.1827 48.2843 45.9567C48.3307 45.7307 48.4274 45.518 48.5673 45.3345C49.1705 44.5089 49.6177 43.58 49.8867 42.5935C50.2565 41.3155 50.2869 39.9633 49.9748 38.67C49.849 38.1486 49.9888 37.7558 50.3941 37.2918C50.5447 37.1263 50.6497 36.9244 50.6988 36.7061C50.7422 36.4923 50.9211 36.3092 50.9854 36.0953C51.2426 35.2357 51.5082 34.3761 51.4453 33.4605C51.432 33.2651 51.432 33.0689 51.4453 32.8735C51.5012 31.9985 51.2733 31.171 50.9896 30.3575C50.9167 30.1379 50.9196 29.9001 50.998 29.6824C51.0685 29.5097 51.1792 29.3564 51.3209 29.2351C51.9415 28.5723 52.3923 27.7689 52.6348 26.8938C52.7228 26.5793 52.7214 26.2537 52.8081 25.935C53.1477 24.6644 52.9073 23.44 52.3105 22.298Z" fill="#2A3A15"/>
</svg>
