<svg width="28" height="36" viewBox="0 0 28 36" fill="none" xmlns="http://www.w3.org/2000/svg">
<path d="M13.9971 35.3867C12.278 35.3867 10.8553 34.0668 10.7441 32.3838L8.85457 16.979L1.25923 11.3733C0.0291335 10.5716 -0.356206 8.99682 0.355224 7.7723C0.836808 6.93365 1.74832 6.40824 2.72642 6.40824C3.15617 6.40824 3.57859 6.51076 3.96393 6.70013L12.6114 11.0159C12.801 11.1098 13.0009 11.1839 13.2079 11.238C13.4624 11.3035 13.7275 11.3362 13.9971 11.3362C14.1611 11.3362 14.3234 11.3234 14.4826 11.2992C14.7984 11.2508 15.102 11.1554 15.3828 11.0159L23.9712 6.72149C24.3713 6.51788 24.8233 6.41536 25.2679 6.41536C26.1349 6.41536 26.9278 6.79411 27.439 7.45763C27.9059 8.06277 28.0911 8.82881 27.9578 9.57207C27.8244 10.294 27.3946 10.9361 26.7795 11.3362L19.1472 16.9648L17.265 32.3254C17.1538 34.0526 15.7237 35.3725 14.0045 35.3725L13.9971 35.3867Z" fill="white"/>
<path d="M13.9897 7.6769C12.6782 7.6769 11.9594 7.13726 11.5814 6.68589C11.0702 6.07363 10.8108 5.1766 10.8108 4.02469C10.8108 2.87279 11.0702 1.98999 11.5814 1.37773C11.9594 0.926363 12.6856 0.386719 13.9897 0.386719C15.2939 0.386719 16.0349 0.926363 16.4128 1.37773C16.9242 1.98999 17.1835 2.8799 17.1835 4.02469C17.1835 5.16948 16.9242 6.06509 16.4128 6.68589C16.0349 7.13726 15.3087 7.6769 13.9897 7.6769Z" fill="white"/>
</svg>
