<svg width="28" height="33" viewBox="0 0 28 33" fill="none" xmlns="http://www.w3.org/2000/svg">
<path fill-rule="evenodd" clip-rule="evenodd" d="M19.1584 29.7141C19.3958 31.8269 20.5122 32.3867 21.1538 32.3867V32.3737H23.0467C24.4967 32.3737 25.01 30.6475 25.087 29.6008L25.9083 21.5751L26.3318 21.4423C26.768 21.303 27.1338 21.0687 27.4161 20.742C27.846 20.2421 28 19.6224 28 19.2227V13.3502C28 11.3506 26.3831 9.4643 24.6763 9.4643H3.32938C1.62271 9.4643 0.00579192 11.3506 0.00579192 13.3502V18.8166C-0.0134757 19.0899 -0.0198982 20.0233 0.589695 20.742C0.871973 21.0687 1.23767 21.303 1.68043 21.4423L2.10393 21.5751L2.93157 29.6204C3.00214 30.6475 3.5219 32.3802 4.96556 32.3802H6.85833C7.48719 32.3802 8.61004 31.8204 8.85386 29.7141C9.04943 27.997 9.3903 24.279 9.56989 22.3211L9.68151 21.1156V21.0492L11.3434 15.0764H16.6688L18.3371 21.0492V21.1156C18.386 21.6806 18.4817 22.7585 18.5949 23.9939C18.7783 25.9948 19.0076 28.4071 19.1584 29.7141ZM20.0951 6.11212C20.5443 6.68492 21.2052 6.98564 22.0521 7.01818H22.1804C23.3097 7.01818 23.9321 6.52609 24.2593 6.11863C24.702 5.55884 24.9266 4.7387 24.9266 3.69985C24.9266 2.65969 24.702 1.85257 24.2593 1.29278C23.9321 0.880108 23.3161 0.393228 22.1804 0.393228C21.0448 0.393228 20.4223 0.886617 20.1015 1.28628C19.6588 1.83955 19.4343 2.64668 19.4343 3.69334C19.4343 4.7387 19.6588 5.55233 20.0951 6.11212ZM3.74645 6.11212C4.07369 6.5261 4.69605 7.01167 5.82532 7.01167C6.95459 7.00516 7.58337 6.51828 7.90419 6.11212C8.34695 5.55233 8.5715 4.73219 8.5715 3.69334C8.5715 2.65318 8.34695 1.84606 7.91061 1.28628C7.58337 0.873599 6.96101 0.386719 5.82532 0.386719C4.91426 0.386719 4.21483 0.693948 3.74645 1.28628C3.31019 1.83955 3.08556 2.64668 3.08556 3.69334C3.08556 4.7387 3.30377 5.55233 3.74645 6.11212Z" fill="white"/>
</svg>
