<svg width="32" height="33" viewBox="0 0 32 33" fill="none" xmlns="http://www.w3.org/2000/svg">
<path d="M6.62663 6.93327C5.42 6.92674 4.81331 6.40558 4.45996 6.01764C4.03337 5.51607 3.79997 4.69971 3.79997 3.65738C3.79997 2.61375 4.02669 1.81829 4.47998 1.27622C4.81331 0.868698 5.45996 0.386719 6.62663 0.386719C7.79329 0.386719 8.44002 0.868698 8.77336 1.27622C9.22664 1.82482 9.45337 2.62028 9.45337 3.66391C9.45337 4.70755 9.22664 5.50301 8.77336 6.04507C8.44002 6.4526 7.79329 6.93327 6.62663 6.93327Z" fill="white"/>
<path d="M0 32.3867V31.0427H3.46663L3.28003 30.1936C3.23999 30.0134 3.21997 29.8318 3.20003 29.6385L2.35335 21.7335L1.91333 21.6003C1.35335 21.4331 1.01335 21.1379 0.833333 20.925C0.206706 20.2027 0.206706 19.2727 0.226644 19.0049V13.6209C0.226644 11.6486 1.89331 9.77551 3.64665 9.77551H9.60669C11.3667 9.77551 13.0267 11.642 13.0267 13.6209V18.9854C13.0466 19.2988 13.0533 20.2288 12.4267 20.9446C12.24 21.1654 11.9 21.4527 11.34 21.6264L10.9 21.761L10.0466 29.7247L10.0338 29.8358C10.0193 29.9638 10.0043 30.0957 9.97331 30.2198L9.7867 31.0701H14.4666V26.4345H23.6333V21.8668L32 21.8472V23.1912H24.9733V27.7524H15.8066V32.3867H0Z" fill="white"/>
</svg>
