<svg width="53" height="54" viewBox="0 0 53 54" fill="none" xmlns="http://www.w3.org/2000/svg">
<path d="M26.5 0.886719C11.8609 0.886719 0 12.7476 0 27.3867C0 42.0258 11.8609 53.8867 26.5 53.8867C41.1391 53.8867 53 42.0258 53 27.3867C53 12.7476 41.1391 0.886719 26.5 0.886719ZM14.5323 25.677C14.5323 24.6833 14.9704 23.8071 15.6542 23.1766L12.3417 22.1829C11.4335 21.9158 10.9206 20.9541 11.1984 20.0565C11.4655 19.1482 12.4165 18.646 13.3248 18.9131L21.8732 21.4776C22.7815 21.7448 23.2944 22.7065 23.0165 23.6041C22.7921 24.3414 22.119 24.8222 21.3817 24.8222C21.3282 24.8222 21.2641 24.8008 21.2 24.8008C21.2748 25.0893 21.3817 25.3672 21.3817 25.677C21.3817 27.5684 19.8536 29.0964 17.9623 29.0964C16.071 29.0964 14.5323 27.5684 14.5323 25.677ZM32.4839 42.1541C29.5133 38.5851 23.4867 38.5851 20.5054 42.1541C19.0629 43.8958 16.4236 41.7053 17.8768 39.9635C20.0139 37.399 23.1554 35.9244 26.4893 35.9244C29.8232 35.9244 32.9647 37.399 35.1018 39.9635C36.5764 41.7266 33.9157 43.8744 32.4839 42.1541ZM40.669 22.1829L37.3565 23.1766C38.0296 23.7964 38.4784 24.6833 38.4784 25.677C38.4784 27.5684 36.9504 29.0964 35.0591 29.0964C33.1677 29.0964 31.6397 27.5684 31.6397 25.677C31.6397 25.3672 31.7359 25.0787 31.8214 24.8008C31.7573 24.8115 31.7038 24.8222 31.6397 24.8222C30.9024 24.8222 30.2292 24.3414 30.0048 23.6041C29.7377 22.6958 30.2506 21.7448 31.1482 21.4776L39.6966 18.9131C40.5942 18.646 41.5558 19.1589 41.823 20.0565C42.0901 20.9647 41.5772 21.9158 40.669 22.1829Z" fill="#2A3A15"/>
</svg>
