<svg width="137" height="62" viewBox="0 0 137 62" fill="none" xmlns="http://www.w3.org/2000/svg">
<path d="M31.4647 41.2988H32.9658V61.2146H29.4766V41.2988H31.4647Z" fill="#F8D100"/>
<path d="M31.4647 21.2363H32.9658V41.2993H29.4766V21.2363H31.4647Z" fill="#E3000F"/>
<path d="M20.3653 8.37391C21.3768 9.9874 22.2036 9.94994 23.4023 9.94994C22.3909 9.20073 21.7514 8.18661 21.4142 7.69962L19.5385 4.70007C19.3512 3.76355 18.8642 2.89927 18.1498 2.26244C18.3746 2.18752 18.5993 2.07513 18.7117 2.00021C17.5103 2.00021 16.2741 1.40084 15.6372 1.40084C15.2252 1.40084 14.9255 1.66306 14.9255 2.00021C14.9629 2.37482 15.3376 2.74943 16.0493 2.74943C16.1992 2.74943 16.4239 2.71197 16.6487 2.6745C17.0233 3.19896 17.3604 3.68595 17.3604 4.40038C17.3604 5.71419 15.7844 6.72563 14.211 6.72563C14.1361 6.72563 14.0237 6.72563 13.9488 6.72563C13.799 6.38848 13.3495 5.86403 13.3495 5.22452C13.3495 4.17562 14.0237 3.3488 14.0237 2.2999C14.0237 1.66306 13.7241 1.25099 13.5742 1.09847C13.7615 0.911168 13.9863 0.686405 14.0237 0.536562C13.9114 0.574022 13.7615 0.574022 13.5742 0.574022C12.825 0.574022 12.1855 0.386719 11.5861 0.386719C11.249 0.386719 11.1366 0.4991 11.1366 0.611483C11.1366 0.648944 11.1366 0.686404 11.1366 0.686404C11.0242 0.648944 10.8744 0.611483 10.762 0.574022C10.5747 0.536561 10.3874 0.536562 10.2001 0.536562C9.4883 0.536562 9.22608 0.836246 9.22608 1.09847C9.22608 1.32324 9.41338 1.73531 9.60069 2.03499C9.90037 1.88515 10.2375 1.81023 10.3874 1.81023C10.762 1.81023 11.1366 2.18484 11.2864 2.63437C11.0242 2.67183 10.9867 2.67183 10.7245 2.67183C10.0128 2.67183 9.52309 2.40961 9.41071 2.40961L9.37325 2.44707C9.37325 2.55945 9.56055 2.82167 9.97262 2.97152C10.4971 3.15882 11.2864 3.23375 11.3988 3.27121C11.3988 3.30867 11.249 3.53343 11.0991 3.57089C11.0617 3.57089 11.0617 3.57089 11.0242 3.57089C10.4623 3.45851 10.3124 3.42105 9.63547 3.15882C9.59801 3.15882 9.59801 3.15882 9.59801 3.19628C9.59801 3.45851 10.3098 4.05788 10.9493 4.32011C10.4248 4.99441 9.74785 5.70884 9.44817 6.75774C9.37325 6.75774 9.26086 6.75774 9.18594 6.75774C7.60991 6.75774 6.03655 5.7463 6.03655 4.43249C6.03655 3.72074 6.33624 3.23107 6.74831 2.70662C6.97307 2.74408 7.19784 2.78154 7.34768 2.78154C8.05944 2.78154 8.43405 2.40693 8.47151 2.03232C8.47151 1.69517 8.20928 1.43294 7.75975 1.43294C7.08546 1.43294 5.88403 2.03232 4.68528 2.03232C4.79767 2.10724 5.02243 2.21962 5.2472 2.29454C4.53544 2.93138 4.04577 3.79566 3.85847 4.73218L1.9881 7.7344C1.68842 8.22139 1.01412 9.19805 0 9.98473C1.20142 9.98473 1.9881 10.0222 3.03701 8.4087L3.97353 6.87012C4.04845 7.05743 4.12337 7.24473 4.23575 7.4695L2.32257 10.5065C2.02289 10.9935 1.34859 11.9702 0.334472 12.7568C1.5359 12.7568 2.32257 12.7943 3.37148 11.1808L5.02243 8.55587C5.13482 8.66825 5.28466 8.81809 5.39704 8.93047L3.07179 12.6445C2.7721 13.1314 2.09781 14.1081 1.08369 14.8948C2.28511 14.8948 3.10925 14.9322 4.1207 13.3187L6.37102 9.71715C6.52087 9.79207 6.67071 9.90445 6.82055 9.97938L4.08323 14.3677C3.78355 14.8921 3.10925 15.8313 2.09513 16.618C3.29656 16.618 4.1207 16.6554 5.13214 15.0419L7.94438 10.5038C8.09422 10.5788 8.28153 10.6162 8.46883 10.6911L5.28198 15.7912C4.9823 16.2782 4.308 17.2923 3.29388 18.0415C4.4953 18.0415 5.28198 18.079 6.33089 16.4655L9.7425 11.0283C9.77996 11.0283 9.81742 11.0283 9.85489 11.0657C9.92981 11.3654 10.0047 11.6277 10.0047 11.9273C10.0047 13.6532 8.8809 15.1517 7.52963 16.3156C7.60456 16.3531 7.7544 16.3531 7.90424 16.3531C8.16647 16.3531 8.35377 16.3531 8.50362 16.3156C8.20393 17.0274 7.52963 17.9291 7.18981 18.4161C6.74028 18.3412 6.10345 18.2663 5.6887 18.2663C5.23917 18.2663 5.20171 18.5285 5.20171 18.7533C5.20171 19.1653 5.38901 19.465 5.61378 19.6523C5.6887 19.465 5.87601 19.1653 6.66268 19.1653C6.66268 19.1653 6.70014 19.1653 6.73761 19.1653C6.51284 19.4275 5.76362 20.0269 5.76362 20.5166C5.76362 20.8537 6.10077 21.3033 6.58776 21.3033C6.5503 21.1909 6.5503 21.116 6.5503 21.041C6.5503 20.6664 6.88745 20.1794 7.18714 19.8797C7.18714 19.9921 7.18714 19.9547 7.18714 20.0671C7.18714 21.0036 7.26206 21.4183 7.86143 21.4183C8.16112 21.4183 8.34842 21.2685 8.42334 21.231C8.04874 20.8939 8.01128 20.5942 8.01128 20.0697C8.01128 19.9199 8.01128 19.8075 8.01128 19.6202C8.01128 19.5078 8.01127 19.358 7.97381 19.2456C8.19858 19.2081 8.2735 19.2081 8.42334 19.2081C8.42334 19.2081 9.24748 19.1332 9.47225 19.5827C9.69701 19.358 10.0342 19.0957 10.0342 18.7586C10.0342 18.5338 9.92178 18.3091 9.50971 18.3091C9.35987 18.3091 8.83541 18.4215 8.38588 18.4215C8.49827 18.1592 9.02272 17.41 9.47225 16.8829C9.54717 17.1076 9.65955 17.3324 9.88432 17.5197C9.92178 17.1826 10.1091 16.0561 10.671 15.4192C10.7459 15.8688 10.8208 16.3183 10.8208 17.2575C10.8208 19.5827 10.2589 21.2712 9.09496 21.6083C9.24481 21.8705 9.58196 22.1328 9.9191 22.1328C10.3312 22.1328 10.5934 21.6458 10.8182 21.1962C10.9305 21.5334 11.3052 22.3575 11.6423 22.3575C11.9795 22.3575 12.3166 21.5334 12.4664 21.1962C12.6912 21.6458 12.9534 22.1328 13.3655 22.1328C13.7027 22.1328 14.0398 21.908 14.1896 21.6083C13.0284 21.2712 12.4638 19.5827 12.4638 17.2575C12.4638 16.321 12.5387 15.8688 12.6136 15.4192C13.1755 16.0561 13.3628 17.1826 13.4003 17.5197C13.6251 17.3324 13.7374 17.1076 13.8124 16.8829C14.2619 17.4448 14.7863 18.1967 14.8987 18.4215C14.4867 18.4215 13.9622 18.3091 13.7749 18.3091C13.3628 18.3091 13.2504 18.5338 13.2504 18.7586C13.2504 19.0957 13.5876 19.358 13.8124 19.5827C13.9997 19.1332 14.8613 19.2081 14.8613 19.2081C15.0111 19.2081 15.1235 19.2081 15.3108 19.2456C15.2733 19.358 15.2733 19.5078 15.2733 19.6202C15.2733 19.8075 15.2733 19.9199 15.2733 20.0697C15.2733 20.5942 15.2359 20.8564 14.8613 21.231C14.9362 21.2685 15.1235 21.4183 15.4232 21.4183C16.0226 21.4183 16.0975 21.0063 16.0975 20.0671C16.0975 19.9547 16.0975 19.9547 16.0975 19.8797C16.3972 20.2169 16.7343 20.6664 16.7343 21.041C16.7343 21.116 16.7343 21.1909 16.6968 21.3033C17.1464 21.3033 17.521 20.8163 17.521 20.5166C17.521 20.0296 16.7718 19.4302 16.547 19.1653C16.5845 19.1653 16.6219 19.1653 16.6219 19.1653C17.4461 19.1653 17.5959 19.4275 17.6708 19.6523C17.8956 19.465 18.0829 19.1653 18.0829 18.7533C18.0829 18.5285 18.0454 18.2663 17.5959 18.2663C17.1838 18.2663 16.547 18.3412 16.0948 18.4161C15.7576 17.9291 15.0834 17.0274 14.781 16.3156C14.8934 16.3531 15.0807 16.3531 15.3804 16.3531C15.5302 16.3531 15.6801 16.3531 15.755 16.3156C14.4037 15.1543 13.2799 13.6158 13.2799 11.9273C13.2799 11.6651 13.3548 11.3654 13.4297 11.0657C13.4672 11.0657 13.5046 11.0657 13.5421 11.0283L16.9537 16.4655C17.9652 18.079 18.792 18.0415 19.9907 18.0415C19.0167 17.2923 18.3398 16.2782 18.0026 15.7912L14.8158 10.6911C15.0031 10.6537 15.1529 10.5788 15.3402 10.5038L18.1525 15.0419C19.1639 16.6554 19.9907 16.618 21.1895 16.618C20.178 15.8313 19.5385 14.8921 19.2014 14.3677L16.4641 9.97938C16.6139 9.90445 16.7637 9.79207 16.9136 9.71715L19.1639 13.3187C20.1754 14.9322 21.0022 14.8948 22.2009 14.8948C21.1895 14.1081 20.55 13.1689 20.2128 12.6445L17.8876 8.93047C18.0374 8.81809 18.1498 8.66825 18.2622 8.55587L19.9131 11.1808C20.9246 12.7943 21.7514 12.7568 22.9501 12.7568C21.9387 11.9702 21.2992 11.031 20.962 10.5065L19.0489 7.4695C19.1612 7.2822 19.2362 7.09489 19.3111 6.87012L20.3653 8.37391ZM5.10003 4.84724C5.10003 3.72341 5.92417 2.82167 6.22386 2.55945C6.29878 2.55945 6.3737 2.59691 6.44862 2.59691C6.14893 2.97152 5.58702 3.60835 5.58702 4.43517C5.58702 6.08612 7.35036 7.5471 9.37592 7.5471C9.37592 7.69694 9.33846 7.84678 9.33846 7.99662C9.33846 8.25885 9.33846 8.48362 9.37592 8.67092C7.12559 8.71106 5.10003 6.8728 5.10003 4.84724ZM8.21196 18.499V18.5365H8.24942C8.88625 18.5365 9.18594 18.499 9.41071 18.4616C9.52309 18.4616 9.59801 18.4241 9.67293 18.4241C9.82278 18.4241 9.97262 18.4241 9.97262 18.6489C9.97262 18.7987 9.82278 18.986 9.67293 19.1359C9.44817 18.9111 9.11102 18.8737 8.62403 18.8737C8.39926 18.8737 8.09958 18.9111 7.94973 18.9486H7.91227H7.87481V19.0235C7.87481 19.1733 7.91227 19.3232 7.91227 19.548V19.7353V19.9975C7.91227 20.5219 7.98719 20.8591 8.1745 21.0838C8.13704 21.0838 8.06211 21.1213 7.98719 21.1213C7.65005 21.1213 7.53766 20.9715 7.53766 19.9975C7.53766 19.8102 7.53766 19.6229 7.53766 19.5105V19.3232L7.5002 19.3606C7.01321 19.7353 6.48876 20.4096 6.4513 20.9367C6.30145 20.8243 6.15161 20.637 6.15161 20.4497C6.15161 20.1875 6.56368 19.7379 7.05067 19.2884L7.3129 19.0262L7.35036 18.9887L7.27544 18.9513C7.16305 18.9138 6.97575 18.8763 6.82591 18.8763C6.30145 18.8763 5.92684 18.9887 5.73954 19.2135C5.66462 19.1011 5.5897 18.8389 5.5897 18.689C5.5897 18.5766 5.62716 18.5392 5.66462 18.5017C5.70208 18.4643 5.777 18.4643 5.85192 18.4643C6.4513 18.4643 7.16573 18.5766 7.42796 18.6141C7.46542 18.5392 8.62938 17.0381 8.92907 16.2139C9.00399 16.1765 9.04145 16.1765 9.19129 16.1765C9.41606 16.1765 9.49098 16.3263 9.52844 16.5511C8.81401 17.3725 8.36448 18.0495 8.21196 18.499ZM14.3636 16.0989C14.476 16.0989 14.5509 16.1363 14.6258 16.1363C14.9255 16.9605 16.052 18.4616 16.1269 18.5365C16.3891 18.4991 17.1383 18.3867 17.7029 18.3867C17.7779 18.3867 17.8528 18.3867 17.8902 18.4241C17.9277 18.4616 17.9652 18.5365 17.9652 18.6114C17.9652 18.7613 17.8902 19.0235 17.8153 19.1359C17.5906 18.9111 17.2534 18.7987 16.729 18.7987C16.5791 18.7987 16.3543 18.8362 16.2794 18.8737H16.242H16.2018L16.5015 19.1733C16.9885 19.6603 17.4006 20.0724 17.4006 20.3346C17.4006 20.4845 17.2507 20.7092 17.1009 20.8216C17.0634 20.2972 16.539 19.6202 16.052 19.2456L16.0145 19.2081V19.3954C16.0145 19.5078 16.0145 19.6951 16.0145 19.8824C16.0145 20.8564 15.9021 21.0063 15.565 21.0063C15.5275 21.0063 15.4526 21.0063 15.3777 20.9688C15.565 20.744 15.6399 20.4443 15.6399 19.8824V19.6202V19.4329C15.6399 19.2081 15.6774 19.0583 15.6774 18.9084V18.8335H15.6399C15.4901 18.7961 15.1904 18.7586 14.9656 18.7586C14.4786 18.7586 14.1789 18.7961 13.9167 19.0208C13.7669 18.9084 13.617 18.6837 13.617 18.5338C13.617 18.3465 13.7294 18.3091 13.9167 18.3091C13.9916 18.3091 14.0666 18.3091 14.1789 18.3465C14.3662 18.384 14.7034 18.4215 15.3402 18.4215H15.3777V18.384C15.2278 17.9345 14.7783 17.2602 14.0639 16.3959C14.0639 16.2487 14.1388 16.0989 14.3636 16.0989ZM11.7012 2.85913C11.6263 2.55945 11.4764 2.25976 11.2891 2.03499C11.1018 1.81023 10.8396 1.58547 10.4275 1.58547C10.2402 1.58547 9.94051 1.66039 9.75321 1.73531C9.67828 1.62293 9.52844 1.28578 9.52844 1.13593C9.52844 0.986089 9.79067 0.836247 10.2402 0.836247C11.2516 0.836247 11.8912 1.28578 11.8912 2.07513C11.9259 2.37214 11.8136 2.63437 11.7012 2.85913ZM12.1882 1.84769C12.1507 1.62293 12.0758 1.43562 11.9259 1.24832C11.9259 1.06101 12.0009 0.836246 12.338 1.02355C12.1507 1.21086 12.3005 1.51054 12.3005 1.51054C12.3005 1.51054 12.6752 1.3607 12.6002 1.09847C13.1274 1.24564 12.7126 1.96007 12.1882 1.84769ZM14.1763 8.71106C14.2137 8.4863 14.2137 8.26153 14.2137 8.03676C14.2137 7.92438 14.2137 7.77454 14.2137 7.58723C16.2018 7.54977 17.9277 6.12358 17.9277 4.47531C17.9277 3.65117 17.3658 3.01165 17.0661 2.63704C17.141 2.63704 17.2159 2.59958 17.2909 2.59958C17.5906 2.86181 18.4147 3.76087 18.4147 4.88737C18.4147 6.83534 16.4266 8.6736 14.1763 8.71106Z" fill="black"/>
<path d="M32.9642 1.39844V21.349H31.4631H29.4375V1.39844H32.9642Z" fill="black"/>
<path d="M92.9735 1.16992C92.3741 1.16992 91.962 1.35723 91.772 1.7693C91.6222 2.03152 91.5473 2.48105 91.5473 3.0831V3.71994H90.7231V4.35677H91.5473V9.38188H92.4463V4.35677H93.4203V3.71994H92.4463V2.8958C92.4463 2.59611 92.4838 2.33389 92.5212 2.2215C92.6336 2.0342 92.8209 1.92181 93.0832 1.92181C93.233 1.92181 93.3454 1.92181 93.4203 1.92181V1.21006C93.2731 1.16992 93.1608 1.16992 92.9735 1.16992ZM40.3195 1.20738V9.34442H42.3076C43.1318 9.34442 43.7338 9.19458 44.1084 8.85743C44.5205 8.52028 44.7453 7.92091 44.7453 7.09409C44.7453 6.53218 44.6703 6.08265 44.483 5.78028C44.2957 5.44314 43.9211 5.18091 43.3967 5.06853C43.8462 4.91869 44.1834 4.69392 44.3332 4.39423C44.5205 4.13201 44.5954 3.71994 44.5954 3.23295C44.5954 2.52119 44.4081 1.99406 44.071 1.65692C43.7338 1.35723 43.2094 1.16992 42.4575 1.16992H40.3195V1.20738ZM60.0079 1.20738V4.20693C59.7082 3.7574 59.2961 3.53263 58.7315 3.53263C58.0573 3.53263 57.5703 3.83232 57.3054 4.46916C57.1181 4.91869 57.0057 5.55552 57.0057 6.41979C57.0057 7.31886 57.0806 8.03329 57.2679 8.44536C57.5301 9.08219 58.0171 9.41934 58.769 9.41934C59.3309 9.41934 59.7805 9.15712 60.0828 8.67012V9.30696H60.9444C60.907 8.78251 60.907 8.44536 60.907 8.25806V1.20738H60.0079ZM95.1863 1.32244V2.40881H96.0105V1.32244H95.1863ZM96.9122 1.32244V2.40881H97.7738V1.32244H96.9122ZM41.2935 1.99674H42.23C42.717 1.99674 43.0542 2.07166 43.2789 2.25897C43.5412 2.44627 43.6535 2.82088 43.6535 3.30787C43.6535 4.28185 43.204 4.77152 42.2648 4.77152H41.2534V1.99674H41.2935ZM86.375 2.25897L85.4759 2.67103V3.71994H84.6143V4.35677H85.4759V8.03329C85.4759 8.55774 85.5509 8.89489 85.7007 9.0822C85.888 9.30696 86.2252 9.41934 86.7496 9.41934C86.8994 9.41934 87.1242 9.41934 87.4239 9.38188V8.67012C87.1991 8.70758 87.0493 8.70758 87.0118 8.70758C86.7496 8.70758 86.5998 8.67012 86.4874 8.55774C86.4125 8.44536 86.3375 8.22059 86.3375 7.92091V4.35677H87.349V3.71994H86.3375V2.25629H86.375V2.25897ZM54.0463 3.57009C53.372 3.57009 52.885 3.86978 52.5826 4.46916V3.68248H51.6836C51.721 4.01962 51.721 4.43169 51.721 4.92136V9.3471H52.6201V5.93548C52.6201 5.48595 52.695 5.11134 52.8823 4.77419C53.1071 4.39958 53.3693 4.21228 53.7814 4.21228C54.156 4.21228 54.4182 4.36212 54.568 4.69927C54.643 4.88658 54.6804 5.22372 54.6804 5.71072V9.34977H55.5795V5.33611C55.5474 4.17215 55.0577 3.57009 54.0463 3.57009ZM64.3962 3.57009C63.5346 3.57009 62.9325 3.90724 62.6703 4.58154C62.483 5.03107 62.4081 5.74283 62.4081 6.75695C62.4081 7.65601 62.5204 8.29552 62.7452 8.67012C63.0449 9.19458 63.5694 9.4568 64.3587 9.4568C65.5601 9.4568 66.197 8.81997 66.2719 7.58108H65.4103C65.3728 8.40522 65.0357 8.81997 64.3988 8.81997C63.9493 8.81997 63.6871 8.63266 63.5372 8.25806C63.4249 7.99583 63.3874 7.58376 63.3874 7.01917V6.64456H66.3495V6.38233C66.3495 5.48327 66.2746 4.84376 66.0873 4.46916C65.7474 3.87246 65.223 3.57009 64.3962 3.57009ZM69.159 3.57009C68.6721 3.57009 68.26 3.68247 67.9576 3.9447C67.6205 4.20693 67.4706 4.58154 67.4706 5.06853C67.4706 5.51806 67.6205 5.85521 67.9202 6.11743C68.07 6.26728 68.4072 6.45458 68.9316 6.75427C69.3062 6.97903 69.5684 7.12888 69.6808 7.24126C69.8681 7.42856 69.9431 7.65333 69.9431 7.99048C69.9431 8.58985 69.6434 8.85208 69.0815 8.85208C68.5945 8.85208 68.2948 8.55239 68.2573 7.95302C68.2573 7.84063 68.2573 7.76571 68.2573 7.65333H67.3583C67.3208 8.89221 67.9202 9.49159 69.0841 9.49159C70.2855 9.49159 70.8475 8.92968 70.8475 7.84064C70.8475 7.42857 70.6976 7.05395 70.4354 6.79173C70.2481 6.60442 69.9484 6.41712 69.4989 6.1549C69.0868 5.93013 68.8246 5.78028 68.7122 5.6679C68.4874 5.4806 68.375 5.25584 68.375 4.99361C68.375 4.76884 68.45 4.58154 68.5998 4.43169C68.7497 4.28185 68.937 4.20693 69.1617 4.20693C69.6862 4.20693 69.9484 4.54408 69.9484 5.25583H70.8475C70.8475 4.69392 70.6976 4.24439 70.4354 3.97949C70.1732 3.72261 69.7611 3.57009 69.159 3.57009ZM73.9219 3.57009C73.36 3.57009 72.9479 3.68248 72.6081 3.90724C72.2335 4.16947 72.0462 4.54408 72.0462 5.06853V5.10599H72.9453V5.06853C72.9453 4.8063 73.0202 4.58154 73.2075 4.43169C73.3948 4.28185 73.6196 4.20693 73.8818 4.20693C74.2564 4.20693 74.5186 4.35677 74.631 4.65646C74.7059 4.84376 74.7434 5.14345 74.7434 5.63044V5.89267C73.8069 5.89267 73.1299 6.00505 72.7178 6.19236C72.1185 6.45458 71.7813 7.01649 71.7813 7.80585C71.7813 8.29284 71.8937 8.70491 72.1185 9.00727C72.3807 9.30696 72.7553 9.49426 73.2423 9.49426C73.8791 9.49426 74.3661 9.23204 74.7809 8.67012V9.41934H75.6425C75.605 8.89489 75.5675 8.29552 75.5675 7.61855V5.51806C75.5675 4.84376 75.4552 4.39423 75.1929 4.09187C75.011 3.72261 74.5614 3.57009 73.9219 3.57009ZM79.4742 3.57009C78.8748 3.57009 78.4253 3.86978 78.1229 4.43169V3.68248H77.2238C77.2613 3.98216 77.2613 4.31931 77.2613 4.65646V9.34442H78.1604V5.85788C78.1604 5.40835 78.2353 4.99628 78.3851 4.73406C78.5724 4.39691 78.8347 4.24707 79.1718 4.24707C79.509 4.24707 79.7712 4.39691 79.8461 4.65914C79.921 4.80898 79.921 5.0712 79.921 5.48327V9.3471H80.8201V5.78296C80.8201 4.77152 81.1572 4.24439 81.8315 4.24439C82.1687 4.24439 82.3934 4.39423 82.5058 4.65646C82.5807 4.84376 82.6182 5.10599 82.6182 5.51806V9.34442H83.5173V5.4806C83.5173 4.8063 83.4049 4.35677 83.2176 4.05441C82.9928 3.71726 82.6182 3.52996 82.1312 3.52996C81.5318 3.52996 81.0448 3.82965 80.7425 4.39156C80.5605 3.87246 80.111 3.57009 79.4742 3.57009ZM102.312 3.57009C101.675 3.57009 101.188 3.86978 100.886 4.43169V3.68248H100.024C100.062 3.98216 100.062 4.31931 100.062 4.69392V9.34442H100.961V5.82042C100.961 5.37089 101.073 5.03375 101.298 4.77152C101.523 4.50929 101.822 4.35945 102.272 4.35945C102.309 4.35945 102.384 4.35945 102.459 4.39691C102.424 3.87246 102.387 3.57009 102.312 3.57009ZM46.2464 3.68515V7.69882C46.2464 8.86011 46.7708 9.46216 47.7849 9.46216C48.3843 9.46216 48.8713 9.19993 49.2111 8.63802V9.34977H50.1102C50.0727 8.97516 50.0727 8.56309 50.0727 8.11089V3.68515H49.1737V7.13423C49.1737 8.2206 48.7991 8.78518 48.0498 8.78518C47.6378 8.78518 47.413 8.63534 47.2632 8.29819C47.1882 8.11089 47.1508 7.77374 47.1508 7.32421V3.68515H46.2464ZM94.5495 3.68515V7.69882C94.5495 8.86011 95.0739 9.46216 96.0881 9.46216C96.6874 9.46216 97.1744 9.19993 97.5142 8.63802V9.34977H98.4133C98.3759 8.97516 98.3759 8.56309 98.3759 8.11089V3.68515H97.4768V7.13423C97.4768 8.2206 97.1022 8.78518 96.353 8.78518C95.9409 8.78518 95.6787 8.63534 95.5663 8.29819C95.4914 8.11089 95.4539 7.77374 95.4539 7.32421V3.68515H94.5495ZM64.3962 4.2096C64.8457 4.2096 65.1454 4.43437 65.2578 4.8839C65.3327 5.10867 65.3701 5.48327 65.3701 6.04519H63.3071C63.3071 5.82042 63.3071 5.5582 63.3446 5.29597C63.4222 4.58421 63.7593 4.2096 64.3962 4.2096ZM58.959 4.2096C59.4085 4.2096 59.7082 4.47183 59.858 4.92136C59.9704 5.25851 60.0454 5.78296 60.0454 6.57232C60.0454 7.28407 60.0079 7.77374 59.8955 8.07343C59.7457 8.56042 59.4085 8.78518 58.959 8.78518C58.5469 8.78518 58.2472 8.56042 58.0974 8.07343C57.985 7.73628 57.9101 7.17437 57.9101 6.42247C57.9101 5.74818 57.9475 5.22105 58.0599 4.92136C58.2472 4.47183 58.5469 4.2096 58.959 4.2096ZM41.2935 5.52073H42.305C42.8294 5.52073 43.204 5.63312 43.4288 5.89534C43.6535 6.15757 43.7659 6.53218 43.7659 7.09677C43.7659 7.69614 43.6161 8.10821 43.3539 8.33565C43.1291 8.52296 42.717 8.59788 42.1524 8.59788H41.2908L41.2935 5.52073ZM74.524 6.49739H74.7487V7.17169C74.7487 7.62122 74.6738 7.95837 74.524 8.25806C74.3367 8.63266 73.9995 8.81997 73.5875 8.81997C73.0255 8.81997 72.7633 8.44536 72.7633 7.7336C72.7606 6.90946 73.3226 6.49739 74.524 6.49739ZM39.5703 13.2109L41.7083 21.348H42.8695L45.0075 13.2109H44.071L42.3076 20.4489L40.5818 13.2109H39.5703ZM54.1961 13.2109V20.2616C54.1961 20.4864 54.1961 20.8235 54.1586 21.348H55.0202V20.7111C55.3199 21.1981 55.7695 21.4603 56.3715 21.4603C57.1207 21.4603 57.6104 21.1232 57.8726 20.4489C58.0225 19.9994 58.1349 19.3625 58.1349 18.4608C58.1349 17.5992 58.0599 16.9597 57.9101 16.5476C57.6479 15.9108 57.1983 15.5736 56.4839 15.5736C55.922 15.5736 55.4725 15.7984 55.1326 16.2854V13.2109H54.1961ZM78.1978 13.2109V21.348H79.0969V17.8989C79.0969 16.7751 79.4715 16.2105 80.2582 16.2105C80.6328 16.2105 80.895 16.3603 81.0448 16.6975C81.1198 16.8848 81.1572 17.2219 81.1572 17.7089V21.348H82.0563V17.3343C82.0563 16.1329 81.5693 15.5335 80.5552 15.5335C79.9558 15.5335 79.5063 15.7957 79.129 16.3202V13.2082H78.1978V13.2109ZM101.3 13.2109V21.348H102.2V17.8989C102.2 16.7751 102.574 16.2105 103.361 16.2105C103.735 16.2105 103.998 16.3603 104.147 16.6975C104.222 16.8848 104.26 17.2219 104.26 17.7089V21.348H105.159V17.3343C105.159 16.1329 104.672 15.5335 103.658 15.5335C103.058 15.5335 102.609 15.7957 102.232 16.3202V13.2082H101.3V13.2109ZM136.067 13.2109V16.2105C135.767 15.7609 135.355 15.5362 134.79 15.5362C134.116 15.5362 133.629 15.8359 133.364 16.4727C133.177 16.9222 133.065 17.5591 133.065 18.4233C133.065 19.3224 133.14 19.9994 133.327 20.4489C133.589 21.0857 134.076 21.4229 134.828 21.4229C135.39 21.4229 135.839 21.1607 136.142 20.6737V21.348H137.003C136.966 20.8235 136.966 20.4864 136.966 20.2616V13.2109H136.067ZM113.451 14.2224L112.552 14.6344V15.6833H111.691V16.3576H112.552V20.0341C112.552 20.5586 112.627 20.8957 112.777 21.1205C112.964 21.3453 113.301 21.4577 113.826 21.4577C113.976 21.4577 114.2 21.4577 114.463 21.4202V20.7084C114.238 20.7459 114.088 20.7459 114.051 20.7459C113.788 20.7459 113.638 20.7084 113.526 20.5961C113.451 20.4837 113.376 20.2964 113.376 19.9592V16.3951H114.388V15.7208H113.376V14.2197H113.451V14.2224ZM47.4451 15.5362C46.5835 15.5362 45.9815 15.8733 45.7192 16.5476C45.5319 16.9971 45.457 17.7089 45.457 18.723C45.457 19.6221 45.5694 20.2616 45.7942 20.6362C46.0939 21.1607 46.6183 21.4603 47.4077 21.4603C48.6091 21.4603 49.2459 20.8235 49.3208 19.5472H48.4592C48.4218 20.3713 48.0846 20.786 47.4478 20.786C46.9983 20.786 46.736 20.5987 46.5862 20.2241C46.4738 19.9619 46.4364 19.5498 46.4364 18.9852V18.6106H49.3984V18.3484C49.3984 17.4493 49.3235 16.8098 49.1362 16.4352C48.7964 15.8359 48.2693 15.5362 47.4451 15.5362ZM64.5835 15.5362C64.0216 15.5362 63.6095 15.6485 63.2697 15.8733C62.8951 16.1355 62.7078 16.5102 62.7078 17.0346V17.1095H63.6068V17.0346C63.6068 16.7724 63.6817 16.5476 63.869 16.3978C64.0563 16.2479 64.2811 16.173 64.5433 16.173C64.9179 16.173 65.1802 16.3228 65.33 16.6225C65.4049 16.8098 65.4424 17.1095 65.4424 17.5965V17.8587C64.5059 17.8587 63.8289 17.9711 63.4543 18.1584C62.8549 18.4207 62.5178 18.9826 62.5178 19.7719C62.5178 20.2589 62.6302 20.671 62.8549 20.9733C63.1171 21.273 63.4918 21.4603 63.9787 21.4603C64.6156 21.4603 65.1026 21.1981 65.5173 20.6362V21.3854H66.3789C66.3415 20.861 66.3415 20.2616 66.3415 19.5846V17.4841C66.3415 16.8098 66.2291 16.3603 65.9668 16.0579C65.71 15.686 65.2604 15.5362 64.5835 15.5362ZM75.1983 15.5362C74.3741 15.5362 73.8095 15.8733 73.5099 16.5102C73.3226 16.9222 73.2102 17.634 73.2102 18.6106C73.2102 19.5873 73.3226 20.299 73.5473 20.6737C73.8096 21.1981 74.3715 21.4603 75.1608 21.4603C76.3221 21.4603 76.9242 20.8235 76.9242 19.5846H76.0626C76.0626 19.9592 75.9876 20.2589 75.8752 20.4462C75.7254 20.7084 75.5006 20.8208 75.126 20.8208C74.714 20.8208 74.4517 20.6335 74.3019 20.2589C74.1895 19.9218 74.1146 19.3599 74.1146 18.4956C74.1146 17.7464 74.152 17.2192 74.227 16.9195C74.3768 16.4326 74.6765 16.1703 75.126 16.1703C75.7254 16.1703 75.9876 16.5824 75.9876 17.3718H76.8492C76.8492 16.7349 76.7369 16.2854 76.4746 15.983C76.3221 15.686 75.8726 15.5362 75.1983 15.5362ZM85.5107 15.5362C84.6491 15.5362 84.0471 15.8733 83.7848 16.5476C83.5975 16.9971 83.5226 17.7089 83.5226 18.723C83.5226 19.6221 83.635 20.2616 83.8598 20.6362C84.1595 21.1607 84.6839 21.4603 85.4733 21.4603C86.6747 21.4603 87.3115 20.8235 87.3864 19.5472H86.5248C86.4874 20.3713 86.1502 20.786 85.5134 20.786C85.0639 20.786 84.8016 20.5987 84.6518 20.2241C84.5394 19.9619 84.502 19.5498 84.502 18.9852V18.6106H87.464V18.3484C87.464 17.4493 87.3891 16.8098 87.2018 16.4352C86.862 15.8359 86.3001 15.5362 85.5107 15.5362ZM93.538 15.5362C93.0511 15.5362 92.639 15.6485 92.3366 15.9108C91.9995 16.173 91.8496 16.5476 91.8496 17.0346C91.8496 17.4841 91.9995 17.8213 92.2617 18.0835C92.4115 18.2334 92.7487 18.4207 93.2732 18.7203C93.6478 18.9451 93.91 19.095 94.0224 19.2073C94.2097 19.3946 94.2846 19.6569 94.2846 19.9566C94.2846 20.5559 93.9849 20.8182 93.423 20.8182C92.936 20.8182 92.6363 20.5185 92.5989 19.9191C92.5989 19.8067 92.5989 19.7318 92.5989 19.6194H91.6998C91.6623 20.8583 92.2617 21.4577 93.4257 21.4577C94.6271 21.4577 95.189 20.8958 95.189 19.8067C95.189 19.3946 95.0392 19.02 94.7769 18.7578C94.5896 18.5705 94.2899 18.3832 93.8404 18.121C93.4283 17.8962 93.1661 17.7464 93.0537 17.634C92.829 17.4467 92.7166 17.2219 92.7166 16.9971C92.7166 16.7724 92.7915 16.5851 92.9413 16.4352C93.0912 16.2854 93.2785 16.2105 93.5033 16.2105C94.0277 16.2105 94.2899 16.5476 94.2899 17.2594H95.189C95.189 16.6975 95.0392 16.2854 94.7769 15.983C94.5495 15.686 94.1374 15.5362 93.538 15.5362ZM98.3009 15.5362C97.4768 15.5362 96.8747 15.8733 96.6125 16.5102C96.4252 16.9222 96.3503 17.634 96.3503 18.6106C96.3503 19.5873 96.4627 20.299 96.65 20.6737C96.9122 21.1981 97.4741 21.4603 98.3009 21.4603C99.4622 21.4603 100.064 20.8235 100.064 19.5846H99.2027C99.2027 19.9592 99.1277 20.2589 99.0154 20.4462C98.8655 20.7084 98.6408 20.8208 98.2661 20.8208C97.8541 20.8208 97.5919 20.6335 97.442 20.2589C97.3296 19.9218 97.2547 19.3599 97.2547 18.4956C97.2547 17.7464 97.2922 17.2192 97.3671 16.9195C97.5169 16.4326 97.8166 16.1703 98.2661 16.1703C98.8655 16.1703 99.1277 16.5824 99.1277 17.3718H99.9893C99.9893 16.7349 99.877 16.2854 99.6147 15.983C99.4248 15.686 98.9752 15.5362 98.3009 15.5362ZM130.103 15.5362C129.428 15.5362 128.941 15.8359 128.639 16.4352V15.6486H127.777C127.815 15.9857 127.815 16.3978 127.815 16.8874V21.3132H128.714V17.9016C128.714 17.452 128.789 17.0774 128.976 16.7403C129.201 16.3657 129.463 16.1784 129.875 16.1784C130.25 16.1784 130.512 16.3282 130.662 16.6653C130.737 16.8527 130.774 17.1898 130.774 17.6768V21.3158H131.673V17.2594C131.566 16.1355 131.077 15.5362 130.103 15.5362ZM53.0321 15.5362C52.3953 15.5362 51.9083 15.8359 51.606 16.3978V15.6486H50.7444C50.7818 15.9482 50.7818 16.2854 50.7818 16.6975V21.348H51.6809V17.824C51.6809 17.3744 51.7933 17.0373 52.018 16.7751C52.2428 16.5128 52.5425 16.4004 52.992 16.4004C53.0295 16.4004 53.1044 16.4004 53.1793 16.4379C53.1071 15.8359 53.0696 15.5362 53.0321 15.5362ZM61.8462 15.5362C61.2093 15.5362 60.7223 15.8359 60.42 16.3978V15.6486H59.5584C59.5958 15.9482 59.5958 16.2854 59.5958 16.6975V21.348H60.4949V17.824C60.4949 17.3744 60.6073 17.0373 60.832 16.7751C61.0568 16.5128 61.3565 16.4004 61.806 16.4004C61.8435 16.4004 61.9184 16.4004 61.9933 16.4379C61.9211 15.8359 61.8836 15.5362 61.8462 15.5362ZM91.063 15.5362C90.4261 15.5362 89.9391 15.8359 89.6368 16.3978V15.6486H88.7752C88.8126 15.9482 88.8126 16.2854 88.8126 16.6975V21.348H89.7117V17.824C89.7117 17.3744 89.8241 17.0373 90.0488 16.7751C90.2736 16.5128 90.5733 16.4004 91.0228 16.4004C91.0603 16.4004 91.1352 16.4004 91.2101 16.4379C91.1379 15.8359 91.1379 15.5362 91.063 15.5362ZM67.9978 15.6486V19.6622C67.9978 20.8235 68.4848 21.4256 69.4989 21.4256C70.0982 21.4256 70.5852 21.1633 70.9251 20.6014V21.3132H71.8241C71.7867 20.9386 71.7867 20.489 71.7867 20.0743V15.6486H70.8876V19.0976C70.8876 20.184 70.513 20.7486 69.7638 20.7486C69.3517 20.7486 69.0895 20.5987 68.9771 20.2616C68.9022 20.0743 68.8647 19.7371 68.8647 19.2876V15.6486H67.9978ZM106.813 15.6486V19.6622C106.813 20.8235 107.337 21.4256 108.351 21.4256C108.951 21.4256 109.438 21.1633 109.777 20.6014V21.3132H110.676C110.639 20.9386 110.639 20.489 110.639 20.0743V15.6486H109.74V19.0976C109.74 20.184 109.365 20.7486 108.616 20.7486C108.204 20.7486 107.942 20.5987 107.829 20.2616C107.754 20.0743 107.717 19.7371 107.717 19.2876V15.6486H106.813ZM115.289 15.6486V16.3228H117.39L115.177 20.6362V21.348H118.364V20.6737H116.114L118.326 16.3603V15.6486H115.289ZM122.303 15.6486V19.6622C122.303 20.8235 122.827 21.4256 123.841 21.4256C124.441 21.4256 124.928 21.1633 125.267 20.6014V21.3132H126.166C126.129 20.9386 126.129 20.489 126.129 20.0743V15.6486H125.192V19.0976C125.192 20.184 124.818 20.7486 124.069 20.7486C123.657 20.7486 123.432 20.5987 123.282 20.2616C123.207 20.0743 123.17 19.7371 123.17 19.2876V15.6486H122.303ZM47.4451 16.173C47.8947 16.173 48.1943 16.3978 48.3067 16.8473C48.3816 17.0721 48.4191 17.4467 48.4191 18.0086H46.3561C46.3561 17.7838 46.3561 17.5216 46.3935 17.2594C46.4711 16.5476 46.8457 16.173 47.4451 16.173ZM85.4733 16.173C85.9228 16.173 86.2225 16.3978 86.3349 16.8473C86.4098 17.0721 86.4472 17.4467 86.4472 18.0086H84.3842C84.3842 17.7838 84.3842 17.5216 84.4217 17.2594C84.5367 16.5476 84.8739 16.173 85.4733 16.173ZM56.1842 16.173C56.6337 16.173 56.9334 16.4352 57.0833 16.9971C57.1582 17.2968 57.1957 17.7464 57.1957 18.3484C57.1957 19.3224 57.0833 19.9619 56.8585 20.2991C56.6712 20.5987 56.4464 20.7111 56.1467 20.7111C55.7347 20.7111 55.435 20.5238 55.2477 20.1492C55.0978 19.8495 55.0229 19.2876 55.0229 18.4608C55.0229 17.4868 55.1353 16.8473 55.3601 16.5476C55.5848 16.3228 55.8471 16.173 56.1842 16.173ZM135.015 16.173C135.465 16.173 135.764 16.3978 135.914 16.8848C136.027 17.2219 136.102 17.7838 136.102 18.5357C136.102 19.2475 136.064 19.7371 135.952 20.0368C135.802 20.5238 135.465 20.7486 134.978 20.7486C134.566 20.7486 134.304 20.5238 134.116 20.0368C134.004 19.6997 133.929 19.1378 133.929 18.4233C133.929 17.749 133.966 17.2219 134.079 16.9222C134.266 16.4352 134.566 16.173 135.015 16.173ZM65.223 18.4608H65.4477V19.1351C65.4477 19.5846 65.3728 19.9592 65.223 20.2215C65.0357 20.5961 64.6985 20.7459 64.2865 20.7459C63.7245 20.7459 63.4623 20.3713 63.4623 19.6595C63.4596 18.8729 64.0216 18.4608 65.223 18.4608ZM40.3195 25.1743V33.3114H43.8435V32.5247H41.2935V25.1369H40.3195V25.1743ZM50.0701 25.1743V32.225C50.0701 32.4498 50.0701 32.7869 50.0326 33.3114H50.8942V32.6371C51.1939 33.124 51.6434 33.3863 52.2455 33.3863C52.9947 33.3863 53.4843 33.0491 53.7466 32.3748C53.8964 31.9253 54.0088 31.251 54.0088 30.3493C54.0088 29.4877 53.9339 28.8482 53.784 28.4736C53.5218 27.8367 53.0723 27.4996 52.3578 27.4996C51.7959 27.4996 51.3464 27.7243 51.0066 28.2113V25.1743H50.0701ZM92.7112 25.1743V33.3114H93.6103V25.1743H93.1608H92.7112ZM107.075 25.1743V33.3114H107.974V29.8623C107.974 28.7384 108.348 28.1739 109.098 28.1739C109.472 28.1739 109.735 28.3612 109.884 28.6609C109.959 28.8482 109.997 29.1853 109.997 29.6723V33.3114H110.896V29.2977C110.896 28.0963 110.409 27.5343 109.395 27.5343C108.795 27.5343 108.346 27.7966 107.969 28.321V25.2091H107.075V25.1743ZM121.101 25.1743V33.3114H122V29.8623C122 28.7384 122.375 28.1739 123.162 28.1739C123.536 28.1739 123.798 28.3612 123.948 28.6609C124.023 28.8482 124.061 29.1853 124.061 29.6723V33.3114H124.96V29.2977C124.96 28.0963 124.473 27.5343 123.459 27.5343C122.859 27.5343 122.41 27.7966 122.032 28.321V25.2091H121.096V25.1743H121.101ZM78.3851 25.2867V26.2607H79.3591V25.2867H78.3851ZM99.7244 25.2867V26.2607H100.698V25.2867H99.7244ZM131.641 25.2867V26.2607H132.615V25.2867H131.641ZM82.174 26.1858L81.275 26.5978V27.6467H80.4134V28.2836H81.275V31.9601C81.275 32.4845 81.3499 32.8217 81.4997 33.009C81.687 33.2338 82.0242 33.3461 82.5486 33.3461C82.6985 33.3461 82.9232 33.3461 83.2229 33.3087V32.5969C82.9982 32.6344 82.8483 32.6344 82.8109 32.6344C82.5486 32.6344 82.3988 32.5969 82.3239 32.4845C82.2489 32.3722 82.174 32.1474 82.174 31.8477V28.2836H83.1855V27.6467H82.174V26.1858ZM85.4733 26.1858L84.5742 26.5978V27.6467H83.7126V28.2836H84.5742V31.9601C84.5742 32.4845 84.6491 32.8217 84.799 33.009C84.9863 33.2338 85.3234 33.3461 85.8479 33.3461C85.9977 33.3461 86.2225 33.3461 86.4847 33.3087V32.5969C86.2599 32.6344 86.1101 32.6344 86.0726 32.6344C85.8104 32.6344 85.6606 32.5969 85.5482 32.4845C85.4733 32.3722 85.3983 32.1474 85.3983 31.8477V28.2836H86.4098V27.6467H85.3983V26.1831H85.4733V26.1858ZM135.39 26.1858L134.491 26.5978V27.6467H133.629V28.2836H134.491V31.9601C134.491 32.4845 134.566 32.8217 134.716 33.009C134.903 33.2338 135.24 33.3461 135.764 33.3461C135.914 33.3461 136.139 33.3461 136.439 33.3087V32.5969C136.214 32.6344 136.064 32.6344 136.027 32.6344C135.764 32.6344 135.615 32.5969 135.502 32.4845C135.427 32.3722 135.352 32.1474 135.352 31.8477V28.2836H136.364V27.6467H135.352V26.1831H135.39V26.1858ZM46.8083 27.4996C45.9467 27.4996 45.3446 27.8367 45.0824 28.511C44.8951 28.9605 44.8202 29.6723 44.8202 30.6864C44.8202 31.5855 44.9326 32.225 45.1573 32.5996C45.457 33.1241 45.9815 33.3863 46.7708 33.3863C47.9723 33.3863 48.6091 32.7494 48.684 31.5106H47.8224C47.7849 32.3347 47.4478 32.7494 46.811 32.7494C46.3614 32.7494 46.0992 32.5621 45.9494 32.1875C45.837 31.9253 45.7995 31.5132 45.7995 30.9486V30.574H48.7616V30.3118C48.7616 29.4127 48.6867 28.7732 48.4994 28.3986C48.1569 27.7993 47.595 27.4996 46.8083 27.4996ZM57.2331 27.4996C56.3715 27.4996 55.8069 27.8367 55.5072 28.511C55.3199 28.9605 55.2076 29.6723 55.2076 30.6864C55.2076 31.5855 55.3199 32.225 55.5447 32.5996C55.8444 33.1241 56.3688 33.3863 57.1582 33.3863C58.3596 33.3863 58.9965 32.7494 59.0714 31.5106H58.2098C58.1723 32.3347 57.8352 32.7494 57.1983 32.7494C56.7488 32.7494 56.4866 32.5621 56.3367 32.1875C56.2243 31.9253 56.1869 31.5132 56.1869 30.9486V30.574H59.149V30.3118C59.149 29.4127 59.074 28.7732 58.8867 28.3986C58.5844 27.7993 58.0599 27.4996 57.2331 27.4996ZM62.8603 27.4996C62.186 27.4996 61.699 27.7993 61.3966 28.3986V27.6119H60.535C60.5725 27.9491 60.5725 28.3237 60.5725 28.8508V33.2766H61.4715V29.8623C61.4715 29.4127 61.5465 29.0381 61.7338 28.701C61.9585 28.3264 62.2208 28.1391 62.6328 28.1391C63.0074 28.1391 63.2697 28.3264 63.4195 28.6261C63.4944 28.8134 63.5319 29.1505 63.5319 29.6375V33.2766H64.431V29.2254C64.3587 28.0989 63.8343 27.4996 62.8603 27.4996ZM67.5108 27.4996C67.0238 27.4996 66.6117 27.6119 66.3093 27.8742C65.9722 28.1364 65.8224 28.511 65.8224 28.998C65.8224 29.4475 65.9722 29.7847 66.2719 30.0469C66.4217 30.1967 66.7589 30.3841 67.2833 30.6837C67.6579 30.9085 67.9202 31.0584 68.0325 31.1707C68.2199 31.358 68.2948 31.5828 68.2948 31.9199C68.2948 32.5193 67.9951 32.7815 67.4332 32.7815C66.9462 32.7815 66.6465 32.4819 66.609 31.8825C66.609 31.7701 66.609 31.6952 66.609 31.5828H65.71C65.6725 32.8217 66.2719 33.4211 67.4358 33.4211C68.6373 33.4211 69.2366 32.8591 69.2366 31.7701C69.2366 31.358 69.0868 30.9834 68.8246 30.6837C68.6373 30.4964 68.3376 30.3091 67.8881 30.0469C67.476 29.8221 67.1763 29.6348 67.0639 29.5599C66.8392 29.3726 66.7268 29.1478 66.7268 28.9231C66.7268 28.6983 66.8017 28.511 66.9141 28.3612C67.0639 28.2113 67.2512 28.1364 67.476 28.1364C68.0004 28.1364 68.2627 28.4735 68.2627 29.1853H69.1617C69.1617 28.6234 69.0119 28.1739 68.7497 27.909C68.4848 27.6494 68.0727 27.4996 67.5108 27.4996ZM72.6857 27.4996C72.0863 27.4996 71.6368 27.7993 71.3345 28.3612V27.6119H70.4354C70.4729 27.9116 70.4729 28.2488 70.4729 28.5859V33.2739H71.3719V29.7874C71.3719 29.3378 71.4468 28.9258 71.5967 28.6635C71.784 28.3264 72.0462 28.1765 72.3834 28.1765C72.7205 28.1765 72.9827 28.3264 73.0577 28.5886C73.1326 28.7385 73.1326 29.0007 73.1326 29.4127V33.2766H74.0316V29.7124C74.0316 28.701 74.3688 28.1739 75.0431 28.1739C75.3802 28.1739 75.605 28.3237 75.7174 28.5859C75.7923 28.7732 75.8298 29.0355 75.8298 29.4475V33.2739H76.7288V29.4101C76.7288 28.7358 76.6164 28.2862 76.4291 27.9839C76.2044 27.6467 75.8672 27.4594 75.3428 27.4594C74.7434 27.4594 74.2564 27.7591 73.9166 28.321C73.7721 27.7993 73.36 27.4996 72.6857 27.4996ZM89.4495 27.4996C88.5879 27.4996 87.9858 27.8367 87.7236 28.511C87.5363 28.9605 87.4614 29.6723 87.4614 30.6864C87.4614 31.5855 87.5737 32.225 87.7985 32.5996C88.0982 33.1241 88.6226 33.3863 89.412 33.3863C90.6134 33.3863 91.2503 32.7494 91.3252 31.5106H90.4636C90.4261 32.3347 90.089 32.7494 89.4521 32.7494C89.0026 32.7494 88.7404 32.5621 88.5905 32.1875C88.4782 31.9253 88.4407 31.5132 88.4407 30.9486V30.574H91.4028V30.3118C91.4028 29.4127 91.3279 28.7732 91.1406 28.3986C90.7981 27.7993 90.2361 27.4996 89.4495 27.4996ZM96.7624 27.4996C96.2754 27.4996 95.8633 27.6119 95.5609 27.8742C95.2238 28.1364 95.0739 28.511 95.0739 28.998C95.0739 29.4475 95.2238 29.7847 95.5235 30.0469C95.6733 30.1967 96.0105 30.3841 96.5349 30.6837C96.9095 30.9085 97.1718 31.0584 97.2841 31.1707C97.4714 31.358 97.5464 31.5828 97.5464 31.9199C97.5464 32.5193 97.2467 32.7815 96.6848 32.7815C96.1978 32.7815 95.8981 32.4819 95.8606 31.8825C95.8606 31.7701 95.8606 31.6952 95.8606 31.5828H94.9616C94.9241 32.8217 95.5235 33.4211 96.6874 33.4211C97.8889 33.4211 98.4508 32.8591 98.4508 31.7701C98.4508 31.358 98.3009 30.9834 98.0387 30.6837C97.8514 30.4964 97.5517 30.3091 97.1022 30.0469C96.6901 29.8221 96.4279 29.6348 96.3155 29.5599C96.0907 29.3726 95.9784 29.1478 95.9784 28.9231C95.9784 28.6983 96.0533 28.511 96.2031 28.3612C96.353 28.2113 96.5403 28.1364 96.765 28.1364C97.2895 28.1364 97.5517 28.4735 97.5517 29.1853H98.4508C98.4508 28.6234 98.3009 28.1739 98.0387 27.909C97.7738 27.6494 97.3617 27.4996 96.7624 27.4996ZM104.113 27.4996C103.289 27.4996 102.724 27.7993 102.424 28.4361C102.237 28.8482 102.125 29.5599 102.125 30.5366C102.125 31.5106 102.237 32.225 102.424 32.5996C102.687 33.1241 103.248 33.3863 104.075 33.3863C105.237 33.3863 105.839 32.7494 105.839 31.5106H104.977C104.977 31.8852 104.902 32.1849 104.79 32.3722C104.64 32.6344 104.415 32.7468 104.04 32.7468C103.628 32.7468 103.366 32.5595 103.216 32.2223C103.104 31.8852 103.029 31.3233 103.029 30.459C103.029 29.7098 103.066 29.1826 103.141 28.8829C103.291 28.396 103.591 28.1337 104.04 28.1337C104.64 28.1337 104.902 28.5458 104.902 29.3351H105.764C105.764 28.6983 105.651 28.2488 105.389 27.9464C105.202 27.6494 104.75 27.4996 104.113 27.4996ZM114.388 27.4996C113.526 27.4996 112.962 27.8367 112.662 28.511C112.475 28.9605 112.362 29.6723 112.362 30.6864C112.362 31.5855 112.475 32.225 112.699 32.5996C112.999 33.1241 113.523 33.3863 114.313 33.3863C115.514 33.3863 116.151 32.7494 116.226 31.5106H115.364C115.327 32.3347 114.99 32.7494 114.353 32.7494C113.903 32.7494 113.641 32.5621 113.491 32.1875C113.379 31.9253 113.341 31.5132 113.341 30.9486V30.574H116.304V30.3118C116.304 29.4127 116.229 28.7732 116.041 28.3986C115.739 27.7993 115.177 27.4996 114.388 27.4996ZM128.377 27.4996C127.515 27.4996 126.913 27.8367 126.651 28.511C126.463 28.9605 126.389 29.6723 126.389 30.6864C126.389 31.5855 126.501 32.225 126.726 32.5996C127.025 33.1241 127.55 33.3863 128.339 33.3863C129.541 33.3863 130.177 32.7494 130.252 31.5106H129.391C129.353 32.3347 129.016 32.7494 128.379 32.7494C127.93 32.7494 127.668 32.5621 127.518 32.1875C127.405 31.9253 127.368 31.5132 127.368 30.9486V30.574H130.33V30.3118C130.33 29.4127 130.255 28.7732 130.068 28.3986C129.728 27.7993 129.203 27.4996 128.377 27.4996ZM119.94 27.4996C119.303 27.4996 118.816 27.7993 118.514 28.3612V27.6119H117.652C117.69 27.9116 117.69 28.2488 117.69 28.6609V33.3114H118.589V29.7874C118.589 29.3378 118.701 29.0007 118.926 28.7384C119.151 28.4762 119.45 28.3264 119.9 28.3264C119.937 28.3264 120.012 28.3264 120.087 28.3638C120.052 27.7993 120.015 27.4996 119.94 27.4996ZM78.46 27.6119V33.3114H79.3591V27.6119H78.46ZM99.7994 27.6119V33.3114H100.698V27.6119H99.7994ZM131.679 27.6119V33.3114H132.578V27.6119H131.679ZM46.7708 28.1364C47.2204 28.1364 47.52 28.3612 47.6324 28.8107C47.7073 29.0355 47.7448 29.4101 47.7448 29.972H45.6818C45.6818 29.7472 45.6818 29.485 45.7192 29.2228C45.8316 28.511 46.1715 28.1364 46.7708 28.1364ZM57.2331 28.1364C57.6826 28.1364 57.9823 28.3612 58.0947 28.8107C58.1696 29.0355 58.2071 29.4101 58.2071 29.972H56.1441C56.1441 29.7472 56.1441 29.485 56.1815 29.2228C56.2591 28.511 56.6337 28.1364 57.2331 28.1364ZM89.412 28.1364C89.8615 28.1364 90.1612 28.3612 90.2736 28.8107C90.3485 29.0355 90.386 29.4101 90.386 29.972H88.323C88.323 29.7472 88.323 29.485 88.3604 29.2228C88.4728 28.511 88.8126 28.1364 89.412 28.1364ZM114.35 28.1364C114.8 28.1364 115.099 28.3612 115.212 28.8107C115.287 29.0355 115.324 29.4101 115.324 29.972H113.261C113.261 29.7472 113.261 29.485 113.299 29.2228C113.414 28.511 113.751 28.1364 114.35 28.1364ZM128.377 28.1364C128.826 28.1364 129.126 28.3612 129.238 28.8107C129.313 29.0355 129.351 29.4101 129.351 29.972H127.288C127.288 29.7472 127.288 29.485 127.325 29.2228C127.403 28.511 127.74 28.1364 128.377 28.1364ZM52.0956 28.1739C52.5452 28.1739 52.8448 28.4361 52.9947 28.998C53.0696 29.2977 53.1071 29.7472 53.1071 30.3493C53.1071 31.3233 52.9947 31.9628 52.8074 32.2999C52.6201 32.5996 52.3953 32.7494 52.0956 32.7494C51.6836 32.7494 51.3839 32.5621 51.1966 32.1875C51.0467 31.8878 50.9718 31.3259 50.9718 30.4991C50.9718 29.5251 51.0842 28.8856 51.3089 28.5859C51.4962 28.2862 51.7585 28.1739 52.0956 28.1739Z" fill="black"/>
</svg>
